<svg viewBox="0 0 361.72 474.91" xmlns="http://www.w3.org/2000/svg"><defs><clipPath id="a"><path transform="translate(-84.906 -39.48)" d="M0 356.185h271.291V0H0Z"/></clipPath><clipPath id="b"><path transform="translate(-98.337 -48.93)" d="M0 356.185h271.291V0H0Z"/></clipPath><clipPath id="c"><path transform="translate(-113.48 -50.579)" d="M0 356.185h271.291V0H0Z"/></clipPath><clipPath id="d"><path transform="translate(-126.93 -50.579)" d="M0 356.185h271.291V0H0Z"/></clipPath><clipPath id="e"><path transform="translate(-137.33 -45.39)" d="M0 356.185h271.291V0H0Z"/></clipPath><clipPath id="f"><path transform="translate(-151.99 -44.82)" d="M0 356.185h271.291V0H0Z"/></clipPath><clipPath id="g"><path d="M0 356.185h271.291V0H0Z"/></clipPath><clipPath id="h"><path transform="translate(-173.01 -45.39)" d="M0 356.185h271.291V0H0Z"/></clipPath><clipPath id="i"><path transform="translate(-187.67 -44.82)" d="M0 356.185h271.291V0H0Z"/></clipPath></defs><path d="M1.333 473.523h359.045V360.141H1.333z" fill="#fff"/><path d="M0 0v474.842h361.284V0zm2.239 361.711h356.377V472.18H2.24z" fill="#f18800"/><g fill="#161412"><path transform="matrix(1.3333 0 0 -1.3333 113.21 422.27)" d="M0 0c0 1.04-.185 1.79-.555 2.25s-.985.69-1.844.69H-3.93v-5.91h1.531c.92 0 1.549.225 1.889.675S0-1.08 0 0m-3.93 6.12h1.56c.86 0 1.46.195 1.8.585.341.39.51 1.024.51 1.905 0 .92-.169 1.57-.51 1.95-.34.379-.94.57-1.8.57h-1.56zM3.689-.27c0-2.1-.429-3.625-1.289-4.575S.08-6.27-1.979-6.27H-7.59v20.7h5.611c2.019 0 3.458-.446 4.319-1.335.86-.89 1.29-2.305 1.29-4.245 0-1.02-.17-1.89-.51-2.61S2.2 4.97 1.38 4.59c.9-.4 1.51-.99 1.83-1.77s.479-1.81.479-3.09" clip-path="url(#a)"/><path transform="matrix(1.3333 0 0 -1.3333 131.12 409.67)" d="m0 0-1.74-8.4h3.479zm-2.43-11.7-.84-4.02h-3.84L-1.8 4.979h3.6L7.079-15.72h-3.84l-.84 4.02z" clip-path="url(#b)"/><path transform="matrix(1.3333 0 0 -1.3333 151.31 407.47)" d="M0 0v-17.369h-3.66V0h-3.6v3.33H3.569V0z" clip-path="url(#c)"/><path transform="matrix(1.3333 0 0 -1.3333 169.24 407.47)" d="M0 0v-17.369h-3.66V0h-3.6v3.33H3.569V0z" clip-path="url(#d)"/><path transform="matrix(1.3333 0 0 -1.3333 183.1 414.39)" d="M0 0h4.8v-3.3H0v-5.58h5.58v-3.3h-9.24v20.7h9.24V5.189H0z" clip-path="url(#e)"/><path transform="matrix(1.3333 0 0 -1.3333 202.65 415.15)" d="M0 0c.739 0 1.25.245 1.529.735.281.491.42 1.215.42 2.175s-.135 1.68-.404 2.16c-.271.48-.785.72-1.545.72h-1.92V0zm-1.92-3.3v-8.309h-3.69V9.09H.029c2.04 0 3.486-.49 4.335-1.47.851-.98 1.276-2.55 1.276-4.71 0-1.38-.191-2.53-.571-3.45s-1-1.609-1.859-2.069l3.09-9H2.46L-.15-3.3z" clip-path="url(#f)"/><path transform="matrix(1.3333 0 0 -1.3333 0 474.91)" d="M165.44 33.21h-3.66v20.699h3.66z" clip-path="url(#g)"/><path transform="matrix(1.3333 0 0 -1.3333 230.68 414.39)" d="M0 0h4.8v-3.3H0v-5.58h5.58v-3.3h-9.24v20.7h9.24V5.189H0z" clip-path="url(#h)"/><path transform="matrix(1.3333 0 0 -1.3333 250.23 415.15)" d="M0 0c.739 0 1.25.245 1.529.735.281.491.42 1.215.42 2.175s-.135 1.68-.404 2.16c-.271.48-.785.72-1.545.72h-1.92V0zm-1.92-3.3v-8.309h-3.69V9.09H.029c2.04 0 3.486-.49 4.335-1.47.851-.98 1.276-2.55 1.276-4.71 0-1.38-.191-2.53-.571-3.45s-1-1.609-1.86-2.069l3.091-9H2.46L-.15-3.3z" clip-path="url(#i)"/></g><g fill="#fff"><path d="M180.86 101.67h-2.263v.025h4.527v-.025z"/><path d="M166.72 271.36v-.053h28.286v5.657H166.72v-1.077zm0-158.85h11.314v-10.814h5.658v10.815h11.314v6.157h-11.314v11.314h-5.658v-11.314H166.72zm-28.287 187.156h84.859V78.978h-84.86zM161.063 73.32h39.6V62.063h-39.6z"/></g></svg>