<svg viewBox="0 0 361.72 474.91" xmlns="http://www.w3.org/2000/svg"><defs><clipPath id="a"><path transform="translate(-80.086 -44.749)" d="M0 356.185h271.291V0H0Z"/></clipPath><clipPath id="b"><path transform="translate(-93.507 -53.839)" d="M0 356.185h271.291V0H0Z"/></clipPath><clipPath id="c"><path d="M0 356.185h271.291V0H0Z"/></clipPath><clipPath id="d"><path transform="translate(-109.94 -38.84)" d="M0 356.185h271.291V0H0Z"/></clipPath><clipPath id="e"><path transform="translate(-131.98 -50.509)" d="M0 356.185h271.291V0H0Z"/></clipPath><clipPath id="f"><path transform="translate(-151.21 -48.86)" d="M0 356.185h271.291V0H0Z"/></clipPath><clipPath id="g"><path transform="translate(-162.71 -53.839)" d="M0 356.185h271.291V0H0Z"/></clipPath><clipPath id="h"><path transform="translate(-178.67 -45.23)" d="M0 356.185h271.291V0H0Z"/></clipPath><clipPath id="i"><path transform="translate(-192.74 -48.86)" d="M0 356.185h271.291V0H0Z"/></clipPath><clipPath id="j"><path transform="translate(-206.72 -53.839)" d="M0 356.185h271.291V0H0Z"/></clipPath><clipPath id="k"><path transform="translate(-219.32 -53.839)" d="M0 356.185h271.291V0H0Z"/></clipPath><clipPath id="l"><path transform="translate(-139.67 -184.18)" d="M0 356.185h271.291V0H0Z"/></clipPath></defs><path d="M1.333 473.577h359.045V360.194H1.333z" fill="#fff"/><path d="M0 0v474.895h361.711V0zm2.667 361.711h356.377v110.523H2.667z" fill="#e40521"/><g fill="#161412"><path d="M66.818 414.61h6.4v4.44h-6.4v11.68h-4.92v-27.598h12.32v4.44h-7.4zM85.578 409.77l-2.32 11.2h4.639zm-3.241 15.6-1.12 5.36h-5.119l7.08-27.599h4.8l7.038 27.598h-5.12l-1.12-5.36z"/><path transform="matrix(1.3333 0 0 -1.3333 106.78 415.25)" d="M0 0c.739 0 1.25.245 1.529.735.281.491.42 1.215.42 2.175s-.135 1.68-.404 2.16c-.271.48-.785.72-1.545.72h-1.92V0zm-1.92-3.3v-8.309h-3.69V9.09H.029c2.04 0 3.486-.49 4.335-1.47.851-.98 1.276-2.55 1.276-4.71 0-1.38-.191-2.53-.571-3.45s-1-1.609-1.859-2.069l3.09-9H2.46L-.15-3.3z" clip-path="url(#a)"/><path transform="matrix(1.3333 0 0 -1.3333 124.68 403.13)" d="M0 0v-17.399h5.55v-3.3h-9.24V0z" clip-path="url(#b)"/><path transform="matrix(1.3333 0 0 -1.3333 0 474.91)" d="M106.13 33.14h-3.66v20.699h3.66z" clip-path="url(#c)"/><path transform="matrix(1.3333 0 0 -1.3333 146.59 423.13)" d="M0 0v9.329c0 1.96.55 3.445 1.65 4.455S4.2 15.299 6 15.299c1.72 0 3.11-.49 4.17-1.47 1.059-.98 1.59-2.43 1.59-4.35V8.85H8.07v.629c0 .8-.2 1.416-.6 1.845-.4.43-.92.645-1.56.645-.78 0-1.345-.27-1.695-.81S3.69 9.81 3.69 8.729V.42c0-2.021.74-3.03 2.22-3.03.72 0 1.26.245 1.62.735.36.489.54 1.194.54 2.114V2.43H5.88v2.91h5.88V0c0-1.92-.555-3.391-1.665-4.41C8.985-5.431 7.55-5.94 5.79-5.94c-1.78 0-3.189.504-4.229 1.515C.521-3.415 0-1.94 0 0" clip-path="url(#d)"/><path transform="matrix(1.3333 0 0 -1.3333 175.97 407.57)" d="M0 0v-17.369h-3.66V0h-3.6v3.33H3.569V0z" clip-path="url(#e)"/><path transform="matrix(1.3333 0 0 -1.3333 201.61 409.77)" d="m0 0-1.74-8.4h3.479zm-2.431-11.7-.84-4.02H-7.11L-1.8 4.979h3.6L7.079-15.72h-3.84l-.84 4.02z" clip-path="url(#f)"/><path transform="matrix(1.3333 0 0 -1.3333 216.94 403.13)" d="m0 0 2.49-15.479L5.01 0h4.05L4.41-20.699H.601L-4.05 0Z" clip-path="url(#g)"/><path transform="matrix(1.3333 0 0 -1.3333 238.23 414.61)" d="M0 0h4.8v-3.33H0v-8.76h-3.69V8.609h9.24v-3.33H0z" clip-path="url(#h)"/><path transform="matrix(1.3333 0 0 -1.3333 256.98 409.77)" d="m0 0-1.74-8.4h3.479zm-2.431-11.7-.84-4.02H-7.11L-1.8 4.979h3.6L7.079-15.72h-3.84l-.84 4.02z" clip-path="url(#i)"/><path transform="matrix(1.3333 0 0 -1.3333 275.63 403.13)" d="M0 0v-17.399h5.55v-3.3h-9.24V0z" clip-path="url(#j)"/><path transform="matrix(1.3333 0 0 -1.3333 292.42 403.13)" d="M0 0v-17.399h5.55v-3.3h-9.24V0z" clip-path="url(#k)"/></g><path transform="matrix(1.3333 0 0 -1.3333 186.23 229.34)" d="m0 0-8.037.01-4.04 64.403H4.026zm-4.025-24.021a8.052 8.052 0 1 0 0 16.104 8.052 8.052 0 0 0 0-16.104m94.734-11.617.001.001L.725 114.193a5.544 5.544 0 0 1-4.75 2.678 5.547 5.547 0 0 1-4.911-2.964l-89.849-149.59h.001a5.502 5.502 0 0 1-.832-3.447c.255-2.9 2.855-5.035 5.766-5.035H85.79c2.924 0 5.534 2.151 5.775 5.065a5.507 5.507 0 0 1-.859 3.456" clip-path="url(#l)" fill="#fff"/></svg>