<svg viewBox="0 0 361.72 474.61" xmlns="http://www.w3.org/2000/svg"><defs><clipPath id="a"><path transform="translate(-86.286 -51.755)" d="M0 355.955h271.291V0H0Z"/></clipPath><clipPath id="b"><path transform="translate(-97.422 -57.725)" d="M0 355.955h271.291V0H0Z"/></clipPath><clipPath id="c"><path d="M0 355.955h271.291V0H0Z"/></clipPath><clipPath id="d"><path transform="translate(-127.39 -57.245)" d="M0 355.955h271.291V0H0Z"/></clipPath><clipPath id="e"><path transform="translate(-136.71 -51.335)" d="M0 355.955h271.291V0H0Z"/></clipPath><clipPath id="f"><path transform="translate(-158.2 -61.355)" d="M0 355.955h271.291V0H0Z"/></clipPath><clipPath id="g"><path transform="translate(-175.74 -49.745)" d="M0 355.955h271.291V0H0Z"/></clipPath><clipPath id="h"><path transform="translate(-187.38 -57.815)" d="M0 355.955h271.291V0H0Z"/></clipPath><clipPath id="i"><path transform="translate(-13.121 -21.335)" d="M0 355.955h271.291V0H0Z"/></clipPath><clipPath id="j"><path transform="translate(-32.278 -36.334)" d="M0 355.955h271.291V0H0Z"/></clipPath><clipPath id="k"><path transform="translate(-47.773 -31.355)" d="M0 355.955h271.291V0H0Z"/></clipPath><clipPath id="l"><path transform="translate(-57.192 -21.545)" d="M0 355.955h271.291V0H0Z"/></clipPath><clipPath id="m"><path transform="translate(-75.786 -27.725)" d="M0 355.955h271.291V0H0Z"/></clipPath><clipPath id="n"><path d="M0 355.955h271.291V0H0Z"/></clipPath><clipPath id="o"><path transform="translate(-105.71 -27.245)" d="M0 355.955h271.291V0H0Z"/></clipPath><clipPath id="p"><path transform="translate(-123 -29.825)" d="M0 355.955h271.291V0H0Z"/></clipPath><clipPath id="q"><path transform="translate(-135.06 -31.355)" d="M0 355.955h271.291V0H0Z"/></clipPath><clipPath id="r"><path transform="translate(-144.77 -21.335)" d="M0 355.955h271.291V0H0Z"/></clipPath><clipPath id="s"><path transform="translate(-163.87 -20.315)" d="M0 355.955h271.291V0H0Z"/></clipPath><clipPath id="t"><path transform="translate(-187.51 -15.635)" d="M0 355.955h271.291V0H0Z"/></clipPath><clipPath id="u"><path d="M0 355.955h271.291V0H0Z"/></clipPath><clipPath id="v"><path transform="translate(-210.73 -15.635)" d="M0 355.955h271.291V0H0Z"/></clipPath><clipPath id="w"><path transform="translate(-214.48 -21.335)" d="M0 355.955h271.291V0H0Z"/></clipPath><clipPath id="x"><path transform="translate(-235.97 -31.355)" d="M0 355.955h271.291V0H0Z"/></clipPath><clipPath id="y"><path transform="translate(-251.87 -27.245)" d="M0 355.955h271.291V0H0Z"/></clipPath><clipPath id="z"><path transform="translate(-156.91 -127.05)" d="M0 355.955h271.291V0H0Z"/></clipPath></defs><path d="M1.333 473.277h359.045V359.894H1.333z" fill="#fff"/><path d="M0 0v474.6h361.711V358.55h-.001V0zm2.667 361.71h356.377v110.215H2.667z" fill="#1eaf8e"/><g fill="#1d1d1b"><path transform="matrix(1.3333 0 0 -1.3333 115.05 405.6)" d="M0 0v8.31c0 1.059-.18 1.864-.54 2.415-.36.549-.9.824-1.62.824-.78 0-1.345-.27-1.694-.81-.351-.54-.526-1.349-.526-2.429V0c0-2.021.74-3.03 2.22-3.03.7 0 1.235.264 1.605.795C-.185-1.705 0-.96 0 0m-8.069-.42v9.329c0 1.96.549 3.445 1.65 4.455 1.099 1.01 2.549 1.515 4.349 1.515 1.74 0 3.135-.505 4.185-1.515S3.69 10.869 3.69 8.909V-.42c0-1.92-.555-3.391-1.665-4.41C.915-5.851-.52-6.36-2.28-6.36c-1.78 0-3.19.505-4.23 1.515C-7.549-3.835-8.069-2.36-8.069-.42" clip-path="url(#a)"/><path transform="matrix(1.3333 0 0 -1.3333 129.9 397.64)" d="M0 0h4.8v-3.33H0v-8.76h-3.69V8.609h9.24v-3.33H0z" clip-path="url(#b)"/><path transform="matrix(1.3333 0 0 -1.3333 0 474.61)" d="M115.21 68.224h-2.79v3.42h2.79zm-3.72-6.869-1.739-8.4h3.479zm-.96 6.869h-2.79v3.42h2.79zm-1.469-18.569-.84-4.02h-3.84l5.309 20.699h3.601l5.279-20.699h-3.84l-.84 4.02z" clip-path="url(#c)"/><path transform="matrix(1.3333 0 0 -1.3333 169.86 398.28)" d="M0 0c.74 0 1.25.245 1.53.735s.42 1.215.42 2.175-.135 1.68-.405 2.16S.76 5.79 0 5.79h-1.92V0zm-1.92-3.3v-8.309h-3.69V9.09H.03c2.04 0 3.485-.49 4.335-1.47S5.64 5.07 5.64 2.91c0-1.38-.19-2.53-.57-3.45s-1-1.609-1.86-2.069l3.09-9H2.46L-.15-3.3z" clip-path="url(#d)"/><path transform="matrix(1.3333 0 0 -1.3333 182.28 406.16)" d="M0 0v9.329c0 1.96.55 3.445 1.649 4.455 1.1 1.01 2.55 1.515 4.35 1.515 1.721 0 3.11-.49 4.17-1.47s1.59-2.43 1.59-4.35V8.85h-3.69v.629c0 .8-.2 1.416-.599 1.845-.401.43-.921.645-1.561.645-.78 0-1.345-.27-1.694-.81-.351-.54-.526-1.349-.526-2.43V.42c0-2.021.741-3.03 2.22-3.03.72 0 1.26.245 1.62.735.361.489.54 1.194.54 2.114V2.43h-2.19v2.909h5.88V0c0-1.92-.555-3.391-1.665-4.41-1.11-1.021-2.545-1.53-4.305-1.53-1.779 0-3.189.504-4.229 1.515C.52-3.415 0-1.94 0 0" clip-path="url(#e)"/><path transform="matrix(1.3333 0 0 -1.3333 210.93 392.8)" d="m0 0-1.739-8.4H1.74zm-2.43-11.7-.84-4.02h-3.839L-1.8 4.979h3.601L7.08-15.72H3.24L2.4-11.7z" clip-path="url(#f)"/><path transform="matrix(1.3333 0 0 -1.3333 234.31 408.28)" d="M0 0c.37.54.555 1.29.555 2.25v7.771c0 1.059-.18 1.864-.54 2.414s-.9.825-1.619.825h-1.981V-.81h1.981C-.905-.81-.37-.539 0 0m-1.515 16.59c1.74 0 3.135-.5 4.185-1.5s1.575-2.48 1.575-4.44V1.83c0-1.939-.55-3.414-1.65-4.425-1.1-1.009-2.53-1.514-4.29-1.514h-5.55V16.59z" clip-path="url(#g)"/><path transform="matrix(1.3333 0 0 -1.3333 249.83 397.52)" d="M0 0h4.8v-3.3H0v-5.58h5.58v-3.3h-9.24v20.7h9.24V5.189H0z" clip-path="url(#h)"/><path transform="matrix(1.3333 0 0 -1.3333 17.495 446.16)" d="M0 0v9.329c0 1.96.55 3.445 1.65 4.455S4.2 15.299 6 15.299c1.72 0 3.109-.49 4.169-1.47s1.59-2.43 1.59-4.35V8.85h-3.69v.629c0 .8-.199 1.416-.599 1.845-.401.43-.921.645-1.56.645-.781 0-1.346-.27-1.695-.81-.35-.54-.526-1.349-.526-2.43V.42c0-2.021.741-3.03 2.221-3.03.719 0 1.259.245 1.619.735.361.489.54 1.194.54 2.114V2.43h-2.19v2.909h5.88V0c0-1.92-.554-3.391-1.665-4.41-1.11-1.021-2.545-1.53-4.304-1.53-1.78 0-3.19.504-4.23 1.515C.52-3.415 0-1.94 0 0" clip-path="url(#i)"/><path transform="matrix(1.3333 0 0 -1.3333 43.038 426.16)" d="M0 0v-17.399h5.55v-3.3h-9.24V0z" clip-path="url(#j)"/><path transform="matrix(1.3333 0 0 -1.3333 63.697 432.8)" d="m0 0-1.74-8.4h3.48zm-2.43-11.7-.84-4.02h-3.839L-1.8 4.979h3.6L7.08-15.72H3.24L2.4-11.7z" clip-path="url(#k)"/><path transform="matrix(1.3333 0 0 -1.3333 76.257 445.88)" d="M0 0h3.48c.04-1.021.245-1.771.615-2.25.37-.48.915-.721 1.635-.721s1.245.221 1.575.66c.33.441.495 1.141.495 2.101 0 .8-.185 1.435-.555 1.904-.37.47-.995.906-1.875 1.305l-1.41.631c-1.34.599-2.305 1.34-2.895 2.22C.475 6.729.18 7.909.18 9.39c0 1.739.505 3.13 1.515 4.169 1.01 1.04 2.375 1.56 4.095 1.56 1.7 0 3.015-.515 3.945-1.545s1.425-2.514 1.485-4.455H7.83c-.02.941-.185 1.645-.495 2.115s-.825.705-1.545.705c-1.34 0-2.01-.79-2.01-2.37 0-.719.165-1.295.495-1.724.33-.431.885-.816 1.665-1.156l1.35-.599c1.44-.641 2.485-1.441 3.135-2.401s.975-2.24.975-3.839c0-1.92-.5-3.4-1.5-4.44S7.48-6.15 5.64-6.15c-1.82 0-3.21.53-4.17 1.589C.51-3.5.02-1.98 0 0" clip-path="url(#l)"/><path transform="matrix(1.3333 0 0 -1.3333 101.05 437.64)" d="M0 0h4.8v-3.33H0v-8.76h-3.69V8.609h9.24v-3.33H0z" clip-path="url(#m)"/><path transform="matrix(1.3333 0 0 -1.3333 0 474.61)" d="M94.185 38.224h-2.79v3.42h2.79zm-1.53-16.469v8.31c0 1.059-.18 1.864-.54 2.415-.36.55-.9.824-1.62.824-.78 0-1.345-.269-1.695-.809s-.525-1.35-.525-2.43v-8.31c0-2.02.74-3.03 2.22-3.03.7 0 1.235.265 1.605.795s.555 1.275.555 2.235m-3.15 16.469h-2.79v3.42h2.79zm-4.92-16.889v9.329c0 1.96.55 3.446 1.65 4.456 1.1 1.009 2.55 1.514 4.35 1.514 1.74 0 3.135-.505 4.185-1.514 1.05-1.01 1.575-2.496 1.575-4.456v-9.329c0-1.92-.555-3.39-1.665-4.41s-2.545-1.53-4.305-1.53c-1.78 0-3.19.505-4.23 1.516-1.039 1.009-1.56 2.484-1.56 4.424" clip-path="url(#n)"/><path transform="matrix(1.3333 0 0 -1.3333 140.95 438.28)" d="M0 0c.74 0 1.25.245 1.53.735s.42 1.215.42 2.175-.135 1.68-.405 2.16S.76 5.79 0 5.79h-1.92V0zm-1.92-3.3v-8.309h-3.69V9.09H.03c2.04 0 3.485-.49 4.335-1.47S5.64 5.07 5.64 2.91c0-1.38-.19-2.53-.57-3.45s-1-1.609-1.86-2.069l3.09-9H2.46L-.15-3.3z" clip-path="url(#o)"/><path transform="matrix(1.3333 0 0 -1.3333 164 434.84)" d="M0 0c0 1.1-.155 1.91-.465 2.43s-.855.78-1.635.78h-1.8v-6.42h1.8c.78 0 1.325.26 1.635.78S0-1.1 0 0m3.689 0c0-2.2-.444-3.84-1.335-4.92C1.465-6 .02-6.54-1.98-6.54H-3.9v-7.649h-3.66V6.51h5.58c2.04 0 3.495-.54 4.365-1.62S3.689 2.18 3.689 0" clip-path="url(#p)"/><path transform="matrix(1.3333 0 0 -1.3333 180.08 432.8)" d="m0 0-1.74-8.4h3.481zm-2.43-11.7-.84-4.02h-3.839L-1.8 4.979h3.6L7.081-15.72h-3.84L2.4-11.7z" clip-path="url(#q)"/><path transform="matrix(1.3333 0 0 -1.3333 193.03 446.16)" d="M0 0v9.329c0 1.96.55 3.445 1.649 4.455 1.1 1.01 2.55 1.515 4.35 1.515 1.721 0 3.11-.5 4.17-1.5s1.59-2.52 1.59-4.56v-.63h-3.69v.6c0 .94-.195 1.635-.585 2.085-.389.45-.915.675-1.575.675-.78 0-1.345-.27-1.694-.81-.351-.54-.526-1.349-.526-2.43V.42c0-2.021.741-3.03 2.22-3.03.66 0 1.186.23 1.575.69.39.46.585 1.14.585 2.039v.54h3.66V.09c0-2-.555-3.505-1.665-4.515C8.954-5.436 7.529-5.94 5.789-5.94c-1.779 0-3.189.504-4.229 1.515C.52-3.415 0-1.94 0 0" clip-path="url(#r)"/><path transform="matrix(1.3333 0 0 -1.3333 218.49 447.52)" d="M0 0v-4.68h-3.66v20.7H0V6.27l4.409 9.75H8.1L3.779 7.5 8.76-4.68H4.829L1.68 3.33z" clip-path="url(#s)"/><path transform="matrix(1.3333 0 0 -1.3333 250.02 453.76)" d="M0 0h-3.689L-8.01 11.039V0h-3.689v20.699h3.689L-3.689 9.18v11.519H0z" clip-path="url(#t)"/><path transform="matrix(1.3333 0 0 -1.3333 0 474.61)" d="M195.12 15.635h-3.66v20.699h3.66z" clip-path="url(#u)"/><path transform="matrix(1.3333 0 0 -1.3333 280.97 453.76)" d="M0 0h-3.689L-8.01 11.039V0h-3.689v20.699h3.689L-3.689 9.18v11.519H0z" clip-path="url(#v)"/><path transform="matrix(1.3333 0 0 -1.3333 285.98 446.16)" d="M0 0v9.329c0 1.96.55 3.445 1.649 4.455 1.1 1.01 2.55 1.515 4.35 1.515 1.721 0 3.11-.49 4.17-1.47s1.59-2.43 1.59-4.35V8.85h-3.69v.629c0 .8-.2 1.416-.599 1.845-.401.43-.921.645-1.561.645-.78 0-1.345-.27-1.694-.81-.351-.54-.526-1.349-.526-2.43V.42c0-2.021.741-3.03 2.22-3.03.72 0 1.26.245 1.62.735.361.489.54 1.194.54 2.114V2.43h-2.19v2.909h5.88V0c0-1.92-.555-3.391-1.665-4.41-1.11-1.021-2.545-1.53-4.305-1.53-1.779 0-3.189.504-4.229 1.515C.52-3.415 0-1.94 0 0" clip-path="url(#w)"/><path transform="matrix(1.3333 0 0 -1.3333 314.62 432.8)" d="m0 0-1.739-8.4H1.74zm-2.43-11.7-.84-4.02h-3.839L-1.8 4.979h3.601L7.08-15.72H3.24L2.4-11.7z" clip-path="url(#x)"/><path transform="matrix(1.3333 0 0 -1.3333 335.83 438.28)" d="M0 0c.74 0 1.25.245 1.53.735s.42 1.215.42 2.175-.136 1.68-.405 2.16c-.271.48-.785.72-1.545.72h-1.92V0zm-1.92-3.3v-8.309h-3.69V9.09H.03c2.039 0 3.485-.49 4.334-1.47.851-.98 1.276-2.55 1.276-4.71 0-1.38-.191-2.53-.571-3.45s-1-1.609-1.859-2.069l3.09-9H2.46L-.15-3.3z" clip-path="url(#y)"/></g><path transform="matrix(1.3333 0 0 -1.3333 209.21 305.21)" d="M0 0h-42.525c.721 11.101 9.982 19.911 21.262 19.911C-9.982 19.911-.721 11.101 0 0m11.203 76.075v-.001c0 25.216-5.722 36.638-11.256 47.683-5.34 10.658-10.384 20.725-10.66 42.688l-.006 26.371a2.473 2.473 0 0 1-2.47 2.471h-16.146a2.475 2.475 0 0 1-2.472-2.471l-.005-26.354c-.277-21.98-5.32-32.047-10.661-42.705-5.533-11.045-11.255-22.467-11.255-47.682l-.035-84.84h65z" clip-path="url(#z)" fill="#fff"/></svg>