<svg viewBox="0 0 361.72 474.61" xmlns="http://www.w3.org/2000/svg"><defs><clipPath id="a"><path transform="translate(-119.7 -57.27)" d="M0 355.955h271.291V0H0Z"/></clipPath><clipPath id="b"><path transform="translate(-129.01 -51.361)" d="M0 355.955h271.291V0H0Z"/></clipPath><clipPath id="c"><path transform="translate(-150.5 -61.38)" d="M0 355.955h271.291V0H0Z"/></clipPath><clipPath id="d"><path transform="translate(-168.04 -49.77)" d="M0 355.955h271.291V0H0Z"/></clipPath><clipPath id="e"><path transform="translate(-179.68 -57.84)" d="M0 355.955h271.291V0H0Z"/></clipPath><clipPath id="f"><path transform="translate(-13.121 -21.361)" d="M0 355.955h271.291V0H0Z"/></clipPath><clipPath id="g"><path transform="translate(-32.279 -36.36)" d="M0 355.955h271.291V0H0Z"/></clipPath><clipPath id="h"><path transform="translate(-47.773 -31.38)" d="M0 355.955h271.291V0H0Z"/></clipPath><clipPath id="i"><path transform="translate(-57.193 -21.571)" d="M0 355.955h271.291V0H0Z"/></clipPath><clipPath id="j"><path transform="translate(-75.787 -27.75)" d="M0 355.955h271.291V0H0Z"/></clipPath><clipPath id="k"><path d="M0 355.955h271.291V0H0Z"/></clipPath><clipPath id="l"><path transform="translate(-105.71 -27.27)" d="M0 355.955h271.291V0H0Z"/></clipPath><clipPath id="m"><path transform="translate(-123 -29.85)" d="M0 355.955h271.291V0H0Z"/></clipPath><clipPath id="n"><path transform="translate(-135.06 -31.38)" d="M0 355.955h271.291V0H0Z"/></clipPath><clipPath id="o"><path transform="translate(-144.77 -21.361)" d="M0 355.955h271.291V0H0Z"/></clipPath><clipPath id="p"><path transform="translate(-163.87 -20.34)" d="M0 355.955h271.291V0H0Z"/></clipPath><clipPath id="q"><path transform="translate(-187.51 -15.661)" d="M0 355.955h271.291V0H0Z"/></clipPath><clipPath id="r"><path d="M0 355.955h271.291V0H0Z"/></clipPath><clipPath id="s"><path transform="translate(-210.73 -15.661)" d="M0 355.955h271.291V0H0Z"/></clipPath><clipPath id="t"><path transform="translate(-214.48 -21.361)" d="M0 355.955h271.291V0H0Z"/></clipPath><clipPath id="u"><path transform="translate(-235.97 -31.38)" d="M0 355.955h271.291V0H0Z"/></clipPath><clipPath id="v"><path transform="translate(-251.87 -27.27)" d="M0 355.955h271.291V0H0Z"/></clipPath><clipPath id="w"><path transform="translate(-105.94 -121.08)" d="M0 355.955h271.291V0H0Z"/></clipPath><clipPath id="x"><path transform="translate(-114.38 -127.05)" d="M0 355.955h271.291V0H0Z"/></clipPath></defs><path d="M1.335 473.277h359.044V359.894H1.335z" fill="#fff"/><path d="M0 0v361.71h.001v112.882h361.711V-.01zm2.668 361.71h356.378v110.215H2.668z" fill="#1eaf8e"/><g fill="#101820"><path d="M119.63 397.61h6.4v4.44h-6.4v11.68h-4.92v-27.598h12.32v4.44h-7.4zM143.343 383.614h-3.72v-4.56h3.72zm-4.96 9.158-2.32 11.2h4.64zm-1.278-9.158h-3.72v-4.56h3.72zm-1.962 24.758-1.12 5.358h-5.12l7.082-27.598h4.798l7.04 27.598h-5.12l-1.12-5.358z"/><path transform="matrix(1.3333 0 0 -1.3333 159.6 398.25)" d="M0 0c.739 0 1.25.245 1.529.735.281.491.42 1.215.42 2.175s-.135 1.68-.404 2.16c-.271.48-.785.72-1.545.72h-1.92V0zm-1.92-3.3v-8.309h-3.69V9.09H.029c2.04 0 3.486-.49 4.335-1.47.851-.98 1.276-2.55 1.276-4.71 0-1.38-.191-2.53-.571-3.45s-1-1.609-1.86-2.069l3.091-9H2.46L-.15-3.3z" clip-path="url(#a)"/><path transform="matrix(1.3333 0 0 -1.3333 172.02 406.13)" d="M0 0v9.329c0 1.96.55 3.445 1.65 4.455S4.2 15.299 6 15.299c1.719 0 3.11-.49 4.169-1.47 1.06-.98 1.59-2.43 1.59-4.35V8.85H8.07v.629c0 .8-.2 1.416-.601 1.845-.399.43-.919.645-1.559.645-.78 0-1.345-.27-1.695-.81S3.69 9.81 3.69 8.729V.42c0-2.021.74-3.03 2.22-3.03.72 0 1.259.245 1.62.735.359.489.54 1.194.54 2.114V2.43H5.88v2.91h5.879V0c0-1.92-.554-3.391-1.665-4.41C8.985-5.431 7.549-5.94 5.79-5.94c-1.78 0-3.189.504-4.229 1.515C.521-3.415 0-1.94 0 0" clip-path="url(#b)"/><path transform="matrix(1.3333 0 0 -1.3333 200.67 392.77)" d="m0 0-1.74-8.4h3.479zm-2.431-11.7-.84-4.02H-7.11L-1.8 4.979h3.6L7.079-15.72h-3.84l-.84 4.02z" clip-path="url(#c)"/><path transform="matrix(1.3333 0 0 -1.3333 224.05 408.25)" d="M0 0c.37.54.555 1.29.555 2.25v7.771c0 1.059-.18 1.864-.54 2.414s-.9.825-1.62.825h-1.98V-.81h1.98C-.905-.81-.37-.539 0 0m-1.516 16.59c1.741 0 3.136-.5 4.186-1.5s1.574-2.48 1.574-4.44V1.83c0-1.939-.55-3.415-1.649-4.425-1.1-1.009-2.531-1.514-4.29-1.514h-5.55V16.59z" clip-path="url(#d)"/><path transform="matrix(1.3333 0 0 -1.3333 239.57 397.49)" d="M0 0h4.8v-3.3H0v-5.58h5.58v-3.3h-9.24v20.7h9.24V5.189H0z" clip-path="url(#e)"/><path transform="matrix(1.3333 0 0 -1.3333 17.494 446.13)" d="M0 0v9.329c0 1.96.55 3.445 1.65 4.455S4.2 15.299 6 15.299c1.72 0 3.11-.49 4.17-1.47 1.059-.98 1.59-2.43 1.59-4.35V8.85H8.07v.629c0 .8-.2 1.416-.6 1.845-.4.43-.92.645-1.56.645-.78 0-1.345-.27-1.695-.81S3.69 9.81 3.69 8.729V.42c0-2.021.74-3.03 2.22-3.03.72 0 1.26.245 1.62.735.36.489.54 1.194.54 2.114V2.43H5.88v2.91h5.88V0c0-1.92-.555-3.391-1.665-4.41C8.985-5.431 7.55-5.94 5.79-5.94c-1.78 0-3.189.504-4.229 1.515C.521-3.415 0-1.94 0 0" clip-path="url(#f)"/><path transform="matrix(1.3333 0 0 -1.3333 43.039 426.13)" d="M0 0v-17.399h5.55v-3.3h-9.24V0z" clip-path="url(#g)"/><path transform="matrix(1.3333 0 0 -1.3333 63.697 432.77)" d="m0 0-1.74-8.4h3.479zm-2.431-11.7-.84-4.02H-7.11L-1.8 4.979h3.6L7.079-15.72h-3.84l-.84 4.02z" clip-path="url(#h)"/><path transform="matrix(1.3333 0 0 -1.3333 76.257 445.85)" d="M0 0h3.479c.041-1.021.246-1.771.616-2.25.37-.48.915-.721 1.634-.721.72 0 1.246.221 1.576.66.33.441.495 1.141.495 2.101 0 .8-.186 1.435-.556 1.904-.37.47-.995.906-1.875 1.305L3.96 3.63c-1.341.599-2.306 1.34-2.896 2.22C.475 6.729.18 7.909.18 9.39c0 1.739.505 3.13 1.514 4.169 1.01 1.04 2.375 1.56 4.095 1.56 1.7 0 3.016-.515 3.945-1.545.93-1.03 1.425-2.514 1.485-4.455h-3.39c-.019.941-.184 1.646-.495 2.115-.31.47-.824.705-1.545.705-1.34 0-2.01-.79-2.01-2.37 0-.719.165-1.295.495-1.724.33-.431.885-.816 1.665-1.156l1.35-.6c1.44-.64 2.485-1.44 3.135-2.4s.975-2.24.975-3.839c0-1.92-.5-3.4-1.5-4.44S7.479-6.15 5.64-6.15c-1.821 0-3.21.53-4.17 1.589C.51-3.5.02-1.98 0 0" clip-path="url(#i)"/><path transform="matrix(1.3333 0 0 -1.3333 101.05 437.61)" d="M0 0h4.8v-3.33H0v-8.76h-3.69V8.609h9.24v-3.33H0z" clip-path="url(#j)"/><path transform="matrix(1.3333 0 0 -1.3333 0 474.61)" d="M94.184 38.249h-2.79v3.42h2.79zm-1.529-16.468v8.309c0 1.06-.181 1.865-.54 2.415-.361.55-.901.825-1.62.825-.781 0-1.345-.27-1.696-.81-.349-.54-.524-1.35-.524-2.43v-8.309c0-2.021.739-3.031 2.22-3.031.7 0 1.235.265 1.604.795.37.531.556 1.276.556 2.236m-3.151 16.468h-2.79v3.42h2.79zm-4.919-16.888v9.329c0 1.96.549 3.445 1.65 4.455 1.1 1.01 2.55 1.515 4.35 1.515 1.74 0 3.134-.505 4.184-1.515s1.575-2.495 1.575-4.455v-9.329c0-1.92-.554-3.391-1.665-4.41-1.109-1.021-2.545-1.531-4.304-1.531-1.781 0-3.19.505-4.23 1.516-1.04 1.01-1.56 2.484-1.56 4.425" clip-path="url(#k)"/><path transform="matrix(1.3333 0 0 -1.3333 140.95 438.25)" d="M0 0c.739 0 1.25.245 1.529.735.281.491.42 1.215.42 2.175s-.135 1.68-.404 2.16c-.271.48-.785.72-1.545.72h-1.92V0zm-1.92-3.3v-8.309h-3.69V9.09H.029c2.04 0 3.486-.49 4.335-1.47.851-.98 1.276-2.55 1.276-4.71 0-1.38-.191-2.53-.571-3.45s-1-1.609-1.859-2.069l3.09-9H2.46L-.15-3.3z" clip-path="url(#l)"/><path transform="matrix(1.3333 0 0 -1.3333 164 434.81)" d="M0 0c0 1.1-.154 1.91-.465 2.43-.309.52-.854.78-1.635.78h-1.799v-6.42H-2.1c.781 0 1.326.26 1.635.78C-.154-1.91 0-1.1 0 0m3.69 0c0-2.2-.445-3.84-1.335-4.92S.021-6.54-1.979-6.54h-1.92v-7.649H-7.56V6.51h5.581c2.04 0 3.495-.54 4.364-1.62C3.255 3.81 3.69 2.18 3.69 0" clip-path="url(#m)"/><path transform="matrix(1.3333 0 0 -1.3333 180.08 432.77)" d="m0 0-1.74-8.4h3.479zm-2.431-11.7-.84-4.02H-7.11L-1.8 4.979h3.599l5.28-20.699h-3.84l-.84 4.02z" clip-path="url(#n)"/><path transform="matrix(1.3333 0 0 -1.3333 193.03 446.13)" d="M0 0v9.329c0 1.96.55 3.445 1.65 4.455S4.2 15.299 6 15.299c1.72 0 3.11-.5 4.17-1.5 1.059-1 1.59-2.52 1.59-4.56v-.63H8.07v.6c0 .94-.195 1.635-.585 2.085s-.915.675-1.575.675c-.78 0-1.345-.27-1.695-.81S3.69 9.81 3.69 8.729V.42c0-2.021.74-3.03 2.22-3.03.66 0 1.185.23 1.575.69S8.07-.78 8.07.119v.54h3.659V.09c0-2-.554-3.505-1.665-4.515C8.955-5.436 7.53-5.94 5.79-5.94c-1.78 0-3.189.504-4.229 1.515C.521-3.415 0-1.94 0 0" clip-path="url(#o)"/><path transform="matrix(1.3333 0 0 -1.3333 218.49 447.49)" d="M0 0v-4.68h-3.66v20.7H0V6.27l4.41 9.75H8.1L3.779 7.5 8.76-4.68H4.83L1.68 3.33z" clip-path="url(#p)"/><path transform="matrix(1.3333 0 0 -1.3333 250.02 453.73)" d="M0 0h-3.69l-4.32 11.04V0h-3.69v20.699h3.69L-3.69 9.18v11.519H0z" clip-path="url(#q)"/><path transform="matrix(1.3333 0 0 -1.3333 0 474.61)" d="M195.12 15.661h-3.66V36.36h3.66z" clip-path="url(#r)"/><path transform="matrix(1.3333 0 0 -1.3333 280.97 453.73)" d="M0 0h-3.689l-4.319 11.04V0h-3.691v20.699h3.691L-3.689 9.18v11.519H0z" clip-path="url(#s)"/><path transform="matrix(1.3333 0 0 -1.3333 285.98 446.13)" d="M0 0v9.329c0 1.96.549 3.445 1.65 4.455 1.1 1.01 2.549 1.515 4.35 1.515 1.719 0 3.109-.49 4.17-1.47 1.059-.98 1.59-2.43 1.59-4.35V8.85H8.07v.629c0 .8-.201 1.416-.601 1.845-.399.43-.92.645-1.559.645-.781 0-1.346-.27-1.695-.81-.35-.54-.526-1.349-.526-2.43V.42c0-2.021.741-3.03 2.221-3.03.719 0 1.26.245 1.619.735.36.489.541 1.194.541 2.114V2.43H5.879v2.91h5.881V0c0-1.92-.555-3.391-1.666-4.41-1.11-1.021-2.545-1.53-4.305-1.53-1.779 0-3.189.504-4.228 1.515C.52-3.415 0-1.94 0 0" clip-path="url(#t)"/><path transform="matrix(1.3333 0 0 -1.3333 314.62 432.77)" d="m0 0-1.74-8.4h3.48zm-2.43-11.7-.84-4.02h-3.839l5.31 20.699h3.6L7.08-15.72H3.24L2.4-11.7z" clip-path="url(#u)"/><path transform="matrix(1.3333 0 0 -1.3333 335.83 438.25)" d="M0 0c.738 0 1.25.245 1.529.735.28.491.42 1.215.42 2.175s-.135 1.68-.404 2.16c-.272.48-.785.72-1.545.72h-1.92V0zm-1.92-3.3v-8.309h-3.691V9.09h5.64c2.039 0 3.485-.49 4.334-1.47.852-.98 1.276-2.55 1.276-4.71 0-1.38-.19-2.53-.571-3.45-.379-.92-1-1.609-1.859-2.069l3.09-9h-3.84L-.15-3.3z" clip-path="url(#v)"/></g><g fill="#fff"><path transform="matrix(1.3333 0 0 -1.3333 141.25 313.17)" d="M0 0h59.415l-.033 82.046c0 24.557-5.572 35.678-10.96 46.433-5.247 10.472-10.672 21.3-10.956 43.921l-.006 26.068H21.955l-.006-26.05c-.285-22.639-5.71-33.467-10.956-43.939C5.605 117.724.033 106.603.033 82.046zm62.208-2.792h-65l.034 84.839c0 25.216 5.722 36.638 11.256 47.683 5.34 10.658 10.383 20.725 10.66 42.705l.006 26.354a2.475 2.475 0 0 0 2.471 2.471H37.78a2.474 2.474 0 0 0 2.471-2.471l.006-26.371c.277-21.963 5.321-32.03 10.66-42.688 5.534-11.045 11.256-22.467 11.256-47.684v.001z" clip-path="url(#w)"/><path transform="matrix(1.3333 0 0 -1.3333 152.51 305.21)" d="M0 0h42.525c-.72 11.101-9.982 19.911-21.262 19.911C9.982 19.911.721 11.101 0 0m45.362-2.792H-2.836v1.396c0 13.289 10.811 24.099 24.099 24.099s24.099-10.81 24.099-24.099z" clip-path="url(#x)"/></g></svg>