<svg viewBox="0 0 361.72 474.91" xmlns="http://www.w3.org/2000/svg"><defs><clipPath id="a"><path transform="translate(-66.097 -40.627)" d="M0 356.185h271.291V0H0Z"/></clipPath><clipPath id="b"><path transform="translate(-87.175 -46.536)" d="M0 356.185h271.291V0H0Z"/></clipPath><clipPath id="c"><path transform="translate(-104.56 -41.047)" d="M0 356.185h271.291V0H0Z"/></clipPath><clipPath id="d"><path transform="translate(-115 -55.626)" d="M0 356.185h271.291V0H0Z"/></clipPath><clipPath id="e"><path transform="translate(-131.54 -50.646)" d="M0 356.185h271.291V0H0Z"/></clipPath><clipPath id="f"><path transform="translate(-143.03 -55.626)" d="M0 356.185h271.291V0H0Z"/></clipPath><clipPath id="g"><path transform="translate(-159 -47.016)" d="M0 356.185h271.291V0H0Z"/></clipPath><clipPath id="h"><path transform="translate(-173.07 -50.646)" d="M0 356.185h271.291V0H0Z"/></clipPath><clipPath id="i"><path transform="translate(-187.05 -55.626)" d="M0 356.185h271.291V0H0Z"/></clipPath><clipPath id="j"><path transform="translate(-199.64 -55.626)" d="M0 356.185h271.291V0H0Z"/></clipPath><clipPath id="k"><path transform="translate(-212.17 -179.96)" d="M0 356.185h271.291V0H0Z"/></clipPath><clipPath id="l"><path transform="translate(-156.07 -162.72)" d="M0 356.185h271.291V0H0Z"/></clipPath></defs><path d="M1.333 360.388h359.045V1.343H1.333z" fill="#1d1d1b"/><path d="M0 361.722h361.711V.012H0zM2.667 2.678h356.377v356.378H2.667z" fill="#1d1d1b"/><path d="M1.333 473.577h359.045V360.194H1.333z" fill="#fff"/><path d="M0 474.91h361.711V358.86H0zm2.667-113.382h356.377v110.715H2.667z" fill="#1d1d1b"/><g fill="#1d1d1b"><path transform="matrix(1.3333 0 0 -1.3333 88.129 420.74)" d="M0 0v9.329c0 1.96.55 3.445 1.65 4.455S4.2 15.299 6 15.299c1.72 0 3.11-.49 4.17-1.47 1.059-.98 1.59-2.43 1.59-4.35V8.85H8.07v.629c0 .8-.2 1.416-.6 1.845-.4.43-.92.645-1.56.645-.78 0-1.345-.27-1.695-.81S3.69 9.81 3.69 8.729V.42c0-2.021.74-3.03 2.22-3.03.72 0 1.26.245 1.62.735.36.489.54 1.194.54 2.114V2.43H5.88v2.91h5.88V0c0-1.92-.555-3.391-1.665-4.41C8.985-5.431 7.55-5.94 5.79-5.94c-1.78 0-3.189.504-4.229 1.515C.521-3.415 0-1.94 0 0" clip-path="url(#a)"/><path transform="matrix(1.3333 0 0 -1.3333 116.23 412.87)" d="M0 0c.739 0 1.25.245 1.529.735.281.491.42 1.215.42 2.175s-.135 1.68-.404 2.16c-.271.48-.785.72-1.545.72h-1.92V0zm-1.92-3.3v-8.309h-3.69V9.09H.029c2.04 0 3.486-.49 4.335-1.47.851-.98 1.276-2.55 1.276-4.71 0-1.38-.191-2.53-.571-3.45s-1-1.609-1.859-2.069l3.09-9H2.46L-.15-3.3z" clip-path="url(#b)"/><path transform="matrix(1.3333 0 0 -1.3333 139.42 420.18)" d="M0 0v8.31c0 1.059-.181 1.864-.54 2.415-.36.549-.9.824-1.62.824-.78 0-1.345-.27-1.695-.81S-4.38 9.39-4.38 8.31V0c0-2.021.739-3.03 2.22-3.03.7 0 1.235.264 1.604.795C-.186-1.705 0-.96 0 0m-8.07-.42v9.329c0 1.96.549 3.445 1.65 4.455 1.1 1.01 2.55 1.515 4.35 1.515 1.74 0 3.134-.505 4.184-1.515s1.575-2.495 1.575-4.455V-.42c0-1.92-.554-3.391-1.665-4.41C.915-5.851-.521-6.36-2.28-6.36c-1.781 0-3.19.505-4.23 1.515S-8.07-2.36-8.07-.42" clip-path="url(#c)"/><path transform="matrix(1.3333 0 0 -1.3333 153.33 400.75)" d="m0 0 2.49-15.479L5.01 0h4.05L4.41-20.699H.601L-4.05 0Z" clip-path="url(#d)"/><path transform="matrix(1.3333 0 0 -1.3333 175.38 407.38)" d="m0 0-1.74-8.4h3.479zm-2.431-11.7-.84-4.02H-7.11L-1.8 4.979h3.6L7.079-15.72h-3.84l-.84 4.02z" clip-path="url(#e)"/><path transform="matrix(1.3333 0 0 -1.3333 190.71 400.75)" d="m0 0 2.49-15.479L5.01 0h4.05L4.41-20.699H.601L-4.05 0Z" clip-path="url(#f)"/><path transform="matrix(1.3333 0 0 -1.3333 211.99 412.22)" d="M0 0h4.8v-3.33H0v-8.76h-3.69V8.609h9.24v-3.33H0z" clip-path="url(#g)"/><path transform="matrix(1.3333 0 0 -1.3333 230.75 407.38)" d="m0 0-1.74-8.4h3.479zm-2.431-11.7-.84-4.02H-7.11L-1.8 4.979h3.6L7.079-15.72h-3.84l-.84 4.02z" clip-path="url(#h)"/><path transform="matrix(1.3333 0 0 -1.3333 249.4 400.75)" d="M0 0v-17.399h5.55v-3.3h-9.24V0z" clip-path="url(#i)"/><path transform="matrix(1.3333 0 0 -1.3333 266.19 400.75)" d="M0 0v-17.399h5.55v-3.3h-9.24V0z" clip-path="url(#j)"/></g><g fill="#fff"><path transform="matrix(1.3333 0 0 -1.3333 282.89 234.96)" d="M0 0c-3.936 3.756-4.083 9.991-.327 13.928a9.843 9.843 0 0 0 2.863 2.079c10.163 4.62 13.362 14.637 8.702 22.465 6.602 6.323 6.38 16.739-2.365 24.077a9.91 9.91 0 0 0-2.782 4.264 10.138 10.138 0 0 0 4.817 11.714c.143.079 12.65 7.34 10.35 20.976a20.985 20.985 0 0 1-8.005 13.108c-4.371 3.327-13.258 7.516-24.439-.923l-2.629.367-14.784-1.109 10.488-4.116-14.247-1.19 6.591-3.218-19.526-5.012 38.351-5.36L-20.933-8.07l-31.816 4.446-1.312-3.754 7.725-1.818-7.081-5.259 5.582-1.738-2.102-6.868 19.539-2.731c8.44-11.181 18.135-9.588 23.25-7.587C11.373-25.154 6.731-6.607 0 0" clip-path="url(#k)"/><path transform="matrix(1.3333 0 0 -1.3333 208.1 257.96)" d="m0 0-6.533.063L1.55 6.592l-7.732-.164 6.168 7.283h-89.078v101.09h81.6l7.065 6.441-6.723 3.5 10.648 3.208-10.648 2.217 9.59 3.494h-17.008a16.121 16.121 0 0 1-15.384 6.921c-.328-.032-8.233-.656-11.218-6.265h-40.345c-2.624 2.165-14.794 11.218-26.044 3.248-10.347-8.12-11.425-22.146-1.083-34.245a13.836 13.836 0 0 0 4.363-8.167 7.804 7.804 0 0 0-4.592-6.921 17.263 17.263 0 0 1-6.659-6.167 15.336 15.336 0 0 1 1.148-17.811c-5.407-6.805-4.274-16.705 2.531-22.112a15.782 15.782 0 0 1 2.98-1.866 7.967 7.967 0 0 0 4.592-6.987 14.295 14.295 0 0 0-4.461-8.233 24.735 24.735 0 0 1-6.987-16.269 20.41 20.41 0 0 1 8.168-17.844c11.25-7.971 23.42 1.083 26.044 3.247h40.345c2.985-5.609 10.858-6.232 11.153-6.232a16.1 16.1 0 0 1 15.449 6.888h9.491z" clip-path="url(#l)"/></g></svg>