<svg viewBox="0 0 361.72 474.91" xmlns="http://www.w3.org/2000/svg"><defs><clipPath id="a"><path transform="translate(-79.995 -33.965)" d="M0 356.185h271.291V0H0Z"/></clipPath><clipPath id="b"><path transform="translate(-90.222 -33.095)" d="M0 356.185h271.291V0H0Z"/></clipPath><clipPath id="c"><path transform="translate(-104.15 -36.545)" d="M0 356.185h271.291V0H0Z"/></clipPath><clipPath id="d"><path transform="translate(-122.72 -35.315)" d="M0 356.185h271.291V0H0Z"/></clipPath><clipPath id="e"><path d="M0 356.185h271.291V0H0Z"/></clipPath><clipPath id="f"><path transform="translate(-155.23 -51.334)" d="M0 356.185h271.291V0H0Z"/></clipPath><clipPath id="g"><path transform="translate(-167.83 -51.334)" d="M0 356.185h271.291V0H0Z"/></clipPath><clipPath id="h"><path transform="translate(-184.65 -36.755)" d="M0 356.185h271.291V0H0Z"/></clipPath><clipPath id="i"><path transform="translate(-197.71 -42.244)" d="M0 356.185h271.291V0H0Z"/></clipPath><clipPath id="j"><path transform="translate(-135.65 -118.75)" d="M0 356.185h271.291V0H0Z"/></clipPath><clipPath id="k"><path transform="translate(-182.96 -225.55)" d="M0 356.185h271.291V0H0Z"/></clipPath><clipPath id="l"><path d="M0 356.185h271.291V0H0Z"/></clipPath><clipPath id="m"><path d="M0 356.185h271.291V0H0Z"/></clipPath></defs><path d="M1.333 473.577h359.045V360.194H1.333z" fill="#fff"/><path d="M0 0v474.895h361.711V0zm2.667 361.711h356.377v110.523H2.667z" fill="#f18800"/><g fill="#161412"><path d="M94.629 406.47v23.198h7.4v4.4h-12.32V406.47z"/><path transform="matrix(1.3333 0 0 -1.3333 106.66 429.63)" d="M0 0c1.279 0 1.92.67 1.92 2.01v15.359h3.69V1.59c0-3.28-1.79-4.92-5.371-4.92H-.48V0z" clip-path="url(#a)"/><path transform="matrix(1.3333 0 0 -1.3333 120.3 430.79)" d="M0 0c-.49.86-.735 1.85-.735 2.97v15.269h3.69V3.06c0-.84.159-1.456.48-1.845.32-.39.809-.585 1.469-.585 1.3 0 1.95.809 1.95 2.43v15.179h3.69V2.97c0-1.12-.239-2.11-.72-2.97a5 5 0 0 0-2.01-1.995c-.86-.47-1.83-.705-2.91-.705s-2.045.235-2.894.705A5.14 5.14 0 0 0 0 0" clip-path="url(#b)"/><path transform="matrix(1.3333 0 0 -1.3333 138.87 426.19)" d="M0 0h3.479c.041-1.021.246-1.771.616-2.25.37-.48.915-.721 1.634-.721.72 0 1.246.221 1.576.66.33.441.495 1.141.495 2.101 0 .8-.186 1.435-.556 1.904-.37.47-.995.906-1.875 1.305L3.96 3.63c-1.341.599-2.306 1.34-2.896 2.22C.475 6.729.18 7.909.18 9.39c0 1.739.505 3.13 1.514 4.169 1.01 1.04 2.375 1.56 4.095 1.56 1.7 0 3.016-.515 3.945-1.545.93-1.03 1.425-2.514 1.485-4.455h-3.39c-.019.941-.184 1.646-.495 2.115-.31.47-.824.705-1.545.705-1.34 0-2.01-.79-2.01-2.37 0-.719.165-1.295.495-1.724.33-.431.885-.816 1.665-1.156l1.35-.6c1.44-.64 2.485-1.44 3.135-2.4s.975-2.24.975-3.839c0-1.92-.5-3.4-1.5-4.44S7.479-6.15 5.64-6.15c-1.821 0-3.21.53-4.17 1.589C.51-3.5.02-1.98 0 0" clip-path="url(#c)"/><path transform="matrix(1.3333 0 0 -1.3333 163.62 427.83)" d="M0 0v-4.68h-3.66v20.7H0V6.27l4.41 9.75H8.1L3.779 7.5 8.76-4.68H4.83L1.68 3.33z" clip-path="url(#d)"/><path transform="matrix(1.3333 0 0 -1.3333 0 474.91)" d="M144.97 53.224h-2.79v3.42h2.79zm-3.72-6.869-1.74-8.401h3.479zm-.96 6.869h-2.79v3.42h2.79zm-1.471-18.57-.839-4.019h-3.84l5.31 20.699h3.6l5.279-20.699h-3.84l-.839 4.019z" clip-path="url(#e)"/><path transform="matrix(1.3333 0 0 -1.3333 206.98 406.47)" d="M0 0v-17.399h5.55v-3.3h-9.24V0z" clip-path="url(#f)"/><path transform="matrix(1.3333 0 0 -1.3333 223.77 406.47)" d="M0 0v-17.399h5.55v-3.3h-9.24V0z" clip-path="url(#g)"/><path transform="matrix(1.3333 0 0 -1.3333 246.21 425.91)" d="M0 0v8.31c0 1.059-.181 1.864-.54 2.415-.36.549-.9.824-1.62.824-.78 0-1.345-.27-1.695-.81S-4.38 9.39-4.38 8.31V0c0-2.021.739-3.03 2.22-3.03.7 0 1.235.264 1.604.795C-.186-1.705 0-.96 0 0m-8.07-.42v9.329c0 1.96.549 3.445 1.65 4.455 1.1 1.01 2.55 1.515 4.35 1.515 1.74 0 3.134-.505 4.184-1.515s1.575-2.495 1.575-4.455V-.42c0-1.92-.554-3.391-1.665-4.41C.915-5.851-.521-6.36-2.28-6.36c-1.781 0-3.19.505-4.23 1.515S-8.07-2.36-8.07-.42" clip-path="url(#h)"/><path transform="matrix(1.3333 0 0 -1.3333 263.61 418.59)" d="M0 0c.739 0 1.25.245 1.529.735.281.491.42 1.215.42 2.175s-.135 1.68-.404 2.16c-.271.48-.785.72-1.545.72h-1.92V0zm-1.92-3.3v-8.309h-3.69V9.09H.029c2.04 0 3.486-.49 4.335-1.47.851-.98 1.276-2.55 1.276-4.71 0-1.38-.191-2.53-.571-3.45s-1-1.609-1.86-2.069l3.091-9H2.46L-.15-3.3z" clip-path="url(#i)"/></g><g fill="#fff"><path transform="matrix(1.3333 0 0 -1.3333 180.86 316.58)" d="M0 0c14.311 0 25.998 11.222 26.747 25.346h-53.494C-25.998 11.222-14.311 0 0 0" clip-path="url(#j)"/><path transform="matrix(1.3333 0 0 -1.3333 243.95 174.18)" d="M0 0h-.008a59.69 59.69 0 0 1 12.642 36.824c0 33.111-26.842 59.952-59.953 59.952s-59.953-26.841-59.953-59.952A59.696 59.696 0 0 1-94.631 0h-.003c9.813-14.232 20.211-27.464 20.467-50.812h53.699C-20.211-27.464-9.813-14.232 0 0" clip-path="url(#k)"/><path transform="matrix(1.3333 0 0 -1.3333 0 474.91)" d="M108.86 149.2h53.574v7.668H108.86z" clip-path="url(#l)"/><path transform="matrix(1.3333 0 0 -1.3333 0 474.91)" d="M108.86 161.97h53.574v7.667H108.86z" clip-path="url(#m)"/></g></svg>