<svg viewBox="0 0 361.72 474.91" xmlns="http://www.w3.org/2000/svg"><defs><clipPath id="a"><path transform="translate(-177.86 -136.91)" d="M0 356.185h271.291V0H0Z"/></clipPath><clipPath id="b"><path d="M0 356.185h271.291V0H0Z"/></clipPath><clipPath id="c"><path d="M0 356.185h271.291V0H0Z"/></clipPath><clipPath id="d"><path d="M0 356.185h271.291V0H0Z"/></clipPath><clipPath id="e"><path transform="translate(-76.223 -29.9)" d="M0 356.185h271.291V0H0Z"/></clipPath><clipPath id="f"><path transform="translate(-93.514 -32.48)" d="M0 356.185h271.291V0H0Z"/></clipPath><clipPath id="g"><path transform="translate(-105.57 -34.01)" d="M0 356.185h271.291V0H0Z"/></clipPath><clipPath id="h"><path transform="translate(-115.28 -23.99)" d="M0 356.185h271.291V0H0Z"/></clipPath><clipPath id="i"><path transform="translate(-134.38 -22.97)" d="M0 356.185h271.291V0H0Z"/></clipPath><clipPath id="j"><path transform="translate(-158.03 -18.29)" d="M0 356.185h271.291V0H0Z"/></clipPath><clipPath id="k"><path d="M0 356.185h271.291V0H0Z"/></clipPath><clipPath id="l"><path transform="translate(-181.24 -18.29)" d="M0 356.185h271.291V0H0Z"/></clipPath><clipPath id="m"><path transform="translate(-184.99 -23.99)" d="M0 356.185h271.291V0H0Z"/></clipPath><clipPath id="n"><path transform="translate(-206.48 -34.01)" d="M0 356.185h271.291V0H0Z"/></clipPath><clipPath id="o"><path transform="translate(-222.38 -29.9)" d="M0 356.185h271.291V0H0Z"/></clipPath><clipPath id="p"><path transform="translate(-178.29 -310.19)" d="M0 356.185h271.291V0H0Z"/></clipPath><clipPath id="q"><path d="M0 356.185h271.291V0H0Z"/></clipPath><clipPath id="r"><path d="M0 356.185h271.291V0H0Z"/></clipPath><clipPath id="s"><path d="M0 356.185h271.291V0H0Z"/></clipPath><clipPath id="t"><path d="M0 356.185h271.291V0H0Z"/></clipPath><clipPath id="u"><path d="M0 356.185h271.291V0H0Z"/></clipPath></defs><path transform="matrix(1.3333 0 0 -1.3333 237.15 292.36)" d="M0 0h-84.586a1.25 1.25 0 1 0 0 2.5H0A1.25 1.25 0 0 0 0 0" clip-path="url(#a)" fill="#fff"/><path transform="matrix(1.3333 0 0 -1.3333 0 474.91)" d="M1 1h269.29v85.039H1z" clip-path="url(#b)" fill="#fff"/><path transform="matrix(1.3333 0 0 -1.3333 0 474.91)" d="M269.29 2H2v82.894h267.29zm2 354.18H0V0h271.29v84.894z" clip-path="url(#c)" fill="#617179"/><g fill="#1d1d1b"><path d="M139.48 410.53h-4.919v-16.158l-3.52 10.798h-2.64l-3.48-10.678v16.038h-4.92v-27.598h4.92l4.8 14.56 4.84-14.56h4.919zM149.55 394.29h6.4v4.4h-6.4v7.44h7.44v4.4h-12.32v-27.6h12.32v4.442h-7.44zM170.56 387.37v23.158h-4.88V387.37h-4.8v-4.44h14.439v4.44zM185.85 389.57l-2.32 11.2h4.639zm-3.241 15.6-1.12 5.36h-5.119l7.08-27.599h4.8l7.038 27.598h-5.12l-1.12-5.36zM204.5 382.93v23.198h7.4v4.4h-12.32V382.93zM221.29 382.93v23.198h7.4v4.4h-12.32V382.93zM241.034 398.885h-11v-4.4h11zM61.732 434.41h6.4v4.44h-6.4v11.68h-4.92v-27.598h12.32v4.44h-7.4z"/><path transform="matrix(1.3333 0 0 -1.3333 0 474.91)" d="M64.696 40.879h-2.79v3.42h2.79zM63.167 24.41v8.31c0 1.059-.181 1.864-.54 2.415-.36.55-.9.824-1.62.824-.78 0-1.345-.269-1.695-.809s-.525-1.35-.525-2.43v-8.31c0-2.02.739-3.03 2.22-3.03.7 0 1.235.265 1.604.795.37.53.556 1.275.556 2.235m-3.15 16.469h-2.79v3.42h2.79zm-4.92-16.889v9.329c0 1.96.55 3.446 1.65 4.456 1.1 1.009 2.55 1.514 4.35 1.514 1.74 0 3.134-.505 4.184-1.514 1.05-1.01 1.575-2.496 1.575-4.456V23.99c0-1.92-.554-3.39-1.665-4.41-1.109-1.02-2.544-1.53-4.304-1.53-1.781 0-3.19.505-4.23 1.516-1.04 1.009-1.56 2.484-1.56 4.424" clip-path="url(#d)"/><path transform="matrix(1.3333 0 0 -1.3333 101.63 435.05)" d="M0 0c.739 0 1.25.245 1.529.735.281.491.42 1.215.42 2.175s-.135 1.68-.404 2.16c-.271.48-.785.72-1.545.72h-1.92V0zm-1.92-3.3v-8.309h-3.69V9.09H.029c2.04 0 3.486-.49 4.335-1.47.851-.98 1.276-2.55 1.276-4.71 0-1.38-.191-2.53-.571-3.45s-1-1.609-1.86-2.069l3.091-9H2.46L-.15-3.3z" clip-path="url(#e)"/><path transform="matrix(1.3333 0 0 -1.3333 124.68 431.61)" d="M0 0c0 1.1-.154 1.91-.465 2.43-.309.52-.854.78-1.635.78h-1.799v-6.42H-2.1c.781 0 1.326.26 1.635.78C-.154-1.91 0-1.1 0 0m3.69 0c0-2.2-.445-3.84-1.335-4.92S.021-6.54-1.979-6.54h-1.92v-7.649H-7.56V6.51h5.581c2.04 0 3.495-.54 4.364-1.62C3.255 3.81 3.69 2.18 3.69 0" clip-path="url(#f)"/><path transform="matrix(1.3333 0 0 -1.3333 140.77 429.57)" d="m0 0-1.74-8.4h3.479zm-2.431-11.7-.84-4.02H-7.11L-1.8 4.979h3.6L7.079-15.72h-3.84l-.84 4.02z" clip-path="url(#g)"/><path transform="matrix(1.3333 0 0 -1.3333 153.71 442.93)" d="M0 0v9.329c0 1.96.55 3.445 1.65 4.455S4.2 15.299 6 15.299c1.72 0 3.11-.5 4.17-1.5 1.059-1 1.59-2.52 1.59-4.56v-.63H8.07v.6c0 .94-.195 1.635-.585 2.085s-.915.675-1.575.675c-.78 0-1.345-.27-1.695-.81S3.69 9.81 3.69 8.729V.42c0-2.021.74-3.03 2.22-3.03.66 0 1.185.23 1.575.69S8.07-.78 8.07.119v.54h3.659V.09c0-2-.554-3.505-1.665-4.515C8.955-5.436 7.53-5.94 5.79-5.94c-1.78 0-3.189.504-4.229 1.515C.521-3.415 0-1.94 0 0" clip-path="url(#h)"/><path transform="matrix(1.3333 0 0 -1.3333 179.18 444.29)" d="M0 0v-4.68h-3.66v20.7H0V6.27l4.41 9.75H8.1L3.779 7.5 8.76-4.68H4.83L1.68 3.33z" clip-path="url(#i)"/><path transform="matrix(1.3333 0 0 -1.3333 210.7 450.53)" d="M0 0h-3.69l-4.32 11.04V0h-3.69v20.699h3.69L-3.69 9.18v11.519H0z" clip-path="url(#j)"/><path transform="matrix(1.3333 0 0 -1.3333 0 474.91)" d="M165.63 18.29h-3.66v20.699h3.66z" clip-path="url(#k)"/><path transform="matrix(1.3333 0 0 -1.3333 241.65 450.53)" d="M0 0h-3.689l-4.32 11.04V0h-3.69v20.699h3.69l4.32-11.519v11.519H0z" clip-path="url(#l)"/><path transform="matrix(1.3333 0 0 -1.3333 246.66 442.93)" d="M0 0v9.329c0 1.96.55 3.445 1.65 4.455S4.2 15.299 6 15.299c1.72 0 3.11-.49 4.17-1.47 1.059-.98 1.59-2.43 1.59-4.35V8.85H8.07v.629c0 .8-.2 1.416-.6 1.845-.4.43-.92.645-1.56.645-.78 0-1.345-.27-1.695-.81S3.69 9.81 3.69 8.729V.42c0-2.021.74-3.03 2.22-3.03.72 0 1.26.245 1.62.735.36.489.54 1.194.54 2.114V2.43H5.88v2.91h5.88V0c0-1.92-.555-3.391-1.665-4.41C8.985-5.431 7.55-5.94 5.79-5.94c-1.78 0-3.189.504-4.229 1.515C.521-3.415 0-1.94 0 0" clip-path="url(#m)"/><path transform="matrix(1.3333 0 0 -1.3333 275.31 429.57)" d="m0 0-1.74-8.4h3.479zm-2.431-11.7-.84-4.02H-7.11L-1.8 4.979h3.6L7.079-15.72h-3.84l-.84 4.02z" clip-path="url(#n)"/><path transform="matrix(1.3333 0 0 -1.3333 296.51 435.05)" d="M0 0c.739 0 1.25.245 1.529.735.281.491.42 1.215.42 2.175s-.135 1.68-.404 2.16c-.271.48-.785.72-1.545.72h-1.92V0zm-1.92-3.3v-8.309h-3.69V9.09H.029c2.04 0 3.486-.49 4.335-1.47.851-.98 1.276-2.55 1.276-4.71 0-1.38-.191-2.53-.571-3.45s-1-1.609-1.86-2.069l3.091-9H2.46L-.15-3.3z" clip-path="url(#o)"/></g><g fill="#fff"><path transform="matrix(1.3333 0 0 -1.3333 237.72 61.331)" d="M0 0c3.764-7.997-12.279-23.861-35.832-35.434-23.552-11.573-45.696-14.473-49.459-6.476-3.763 7.996 12.28 23.861 35.832 35.434C-25.906 5.097-3.763 7.996 0 0" clip-path="url(#p)"/><path transform="matrix(1.3333 0 0 -1.3333 0 474.91)" d="M92.453 170.63h86.386v11.843H92.453z" clip-path="url(#q)"/><path transform="matrix(1.3333 0 0 -1.3333 0 474.91)" d="M92.453 126.37h86.386v39.827H92.453z" clip-path="url(#r)"/><path transform="matrix(1.3333 0 0 -1.3333 0 474.91)" d="M92.453 186.9h86.386v11.842H92.453z" clip-path="url(#s)"/><path transform="matrix(1.3333 0 0 -1.3333 0 474.91)" d="M178.84 259.28H92.454v-39.827h86.386z" clip-path="url(#t)"/><path transform="matrix(1.3333 0 0 -1.3333 0 474.91)" d="M92.453 203.18h86.386v11.842H92.453z" clip-path="url(#u)"/></g></svg>