<svg viewBox="0 0 361.72 474.91" xmlns="http://www.w3.org/2000/svg"><defs><clipPath id="a"><path transform="translate(-88.297 -62.315)" d="M0 356.185h271.291V0H0Z"/></clipPath><clipPath id="b"><path transform="translate(-100.36 -63.845)" d="M0 356.185h271.291V0H0Z"/></clipPath><clipPath id="c"><path transform="translate(-118.21 -62.315)" d="M0 356.185h271.291V0H0Z"/></clipPath><clipPath id="d"><path transform="translate(-132.82 -62.315)" d="M0 356.185h271.291V0H0Z"/></clipPath><clipPath id="e"><path transform="translate(-143.52 -60.305)" d="M0 356.185h271.291V0H0Z"/></clipPath><clipPath id="f"><path transform="translate(-158.19 -59.735)" d="M0 356.185h271.291V0H0Z"/></clipPath><clipPath id="g"><path transform="translate(-167.14 -54.035)" d="M0 356.185h271.291V0H0Z"/></clipPath><clipPath id="h"><path d="M0 356.185h271.291V0H0Z"/></clipPath><clipPath id="i"><path transform="translate(-46.299 -30.215)" d="M0 356.185h271.291V0H0Z"/></clipPath><clipPath id="j"><path d="M0 356.185h271.291V0H0Z"/></clipPath><clipPath id="k"><path transform="translate(-76.223 -29.735)" d="M0 356.185h271.291V0H0Z"/></clipPath><clipPath id="l"><path transform="translate(-93.514 -32.315)" d="M0 356.185h271.291V0H0Z"/></clipPath><clipPath id="m"><path transform="translate(-105.57 -33.845)" d="M0 356.185h271.291V0H0Z"/></clipPath><clipPath id="n"><path transform="translate(-115.28 -23.825)" d="M0 356.185h271.291V0H0Z"/></clipPath><clipPath id="o"><path transform="translate(-134.38 -22.805)" d="M0 356.185h271.291V0H0Z"/></clipPath><clipPath id="p"><path transform="translate(-158.03 -18.125)" d="M0 356.185h271.291V0H0Z"/></clipPath><clipPath id="q"><path d="M0 356.185h271.291V0H0Z"/></clipPath><clipPath id="r"><path transform="translate(-181.24 -18.125)" d="M0 356.185h271.291V0H0Z"/></clipPath><clipPath id="s"><path transform="translate(-184.99 -23.825)" d="M0 356.185h271.291V0H0Z"/></clipPath><clipPath id="t"><path transform="translate(-206.48 -33.845)" d="M0 356.185h271.291V0H0Z"/></clipPath><clipPath id="u"><path transform="translate(-222.38 -29.735)" d="M0 356.185h271.291V0H0Z"/></clipPath></defs><path d="M1.333 473.577h359.045V360.194H1.333z" fill="#fff"/><path d="M0 0v474.895h361.711V0zm2.667 361.711h356.377v110.523H2.667z" fill="#c3a166"/><g fill="#161412"><path transform="matrix(1.3333 0 0 -1.3333 117.73 391.83)" d="M0 0c0 1.1-.154 1.91-.465 2.43-.309.52-.854.78-1.635.78h-1.799v-6.42H-2.1c.781 0 1.326.26 1.635.78C-.154-1.91 0-1.1 0 0m3.69 0c0-2.2-.445-3.84-1.335-4.92S.021-6.54-1.979-6.54h-1.92v-7.649H-7.56V6.51h5.581c2.04 0 3.495-.54 4.364-1.62C3.255 3.81 3.69 2.18 3.69 0" clip-path="url(#a)"/><path transform="matrix(1.3333 0 0 -1.3333 133.81 389.79)" d="m0 0-1.74-8.4h3.479zm-2.431-11.7-.84-4.02H-7.11L-1.8 4.979h3.6L7.079-15.72h-3.84l-.84 4.02z" clip-path="url(#b)"/><path transform="matrix(1.3333 0 0 -1.3333 157.61 391.83)" d="M0 0c0 1.1-.154 1.91-.465 2.43-.309.52-.854.78-1.635.78h-1.799v-6.42H-2.1c.781 0 1.326.26 1.635.78C-.154-1.91 0-1.1 0 0m3.69 0c0-2.2-.445-3.84-1.335-4.92S.021-6.54-1.979-6.54h-1.92v-7.649H-7.56V6.51h5.581c2.04 0 3.495-.54 4.364-1.62C3.255 3.81 3.69 2.18 3.69 0" clip-path="url(#c)"/><path transform="matrix(1.3333 0 0 -1.3333 177.09 391.83)" d="M0 0c0 1.1-.154 1.91-.465 2.43-.309.52-.854.78-1.635.78h-1.799v-6.42H-2.1c.781 0 1.326.26 1.635.78C-.154-1.91 0-1.1 0 0m3.69 0c0-2.2-.445-3.84-1.335-4.92S.021-6.54-1.979-6.54h-1.92v-7.649H-7.56V6.51h5.581c2.04 0 3.495-.54 4.364-1.62C3.255 3.81 3.69 2.18 3.69 0" clip-path="url(#d)"/><path transform="matrix(1.3333 0 0 -1.3333 191.36 394.51)" d="M0 0h4.8v-3.3H0v-5.58h5.58v-3.3h-9.24v20.7h9.24V5.189H0z" clip-path="url(#e)"/><path transform="matrix(1.3333 0 0 -1.3333 210.92 395.27)" d="M0 0c.739 0 1.25.245 1.529.735.281.491.42 1.215.42 2.175s-.135 1.68-.404 2.16c-.271.48-.785.72-1.545.72h-1.92V0zm-1.92-3.3v-8.309h-3.69V9.09H.029c2.04 0 3.486-.49 4.335-1.47.851-.98 1.276-2.55 1.276-4.71 0-1.38-.191-2.53-.571-3.45s-1-1.609-1.86-2.069l3.091-9H2.46L-.15-3.3z" clip-path="url(#f)"/><path transform="matrix(1.3333 0 0 -1.3333 222.85 402.87)" d="M0 0h3.479c.041-1.021.246-1.771.616-2.25.37-.48.915-.721 1.634-.721.72 0 1.246.221 1.576.66.33.441.495 1.141.495 2.101 0 .8-.186 1.435-.556 1.904-.37.47-.995.906-1.875 1.305L3.96 3.63c-1.341.599-2.306 1.34-2.896 2.22C.475 6.729.18 7.909.18 9.39c0 1.739.505 3.13 1.514 4.169 1.01 1.04 2.375 1.56 4.095 1.56 1.7 0 3.016-.515 3.945-1.545.93-1.03 1.425-2.514 1.485-4.455h-3.39c-.019.941-.184 1.646-.495 2.115-.31.47-.824.705-1.545.705-1.34 0-2.01-.79-2.01-2.37 0-.719.165-1.295.495-1.724.33-.431.885-.816 1.665-1.156l1.35-.6c1.44-.64 2.485-1.44 3.135-2.4s.975-2.24.975-3.839c0-1.92-.5-3.4-1.5-4.44S7.479-6.15 5.64-6.15c-1.821 0-3.21.53-4.17 1.589C.51-3.5.02-1.98 0 0" clip-path="url(#g)"/><path transform="matrix(1.3333 0 0 -1.3333 0 474.91)" d="M190.04 56.855h-8.25v3.3h8.25z" clip-path="url(#h)"/><path transform="matrix(1.3333 0 0 -1.3333 61.732 434.63)" d="M0 0h4.8v-3.33H0v-8.76h-3.69V8.609h9.24v-3.33H0z" clip-path="url(#i)"/><path transform="matrix(1.3333 0 0 -1.3333 0 474.91)" d="M64.696 40.714h-2.79v3.42h2.79zm-1.529-16.469v8.31c0 1.059-.181 1.864-.54 2.415-.36.55-.9.824-1.62.824-.78 0-1.345-.269-1.695-.809-.35-.541-.525-1.35-.525-2.43v-8.31c0-2.02.739-3.03 2.22-3.03.7 0 1.235.265 1.604.795.37.53.556 1.275.556 2.235m-3.15 16.469h-2.79v3.42h2.79zm-4.92-16.889v9.329c0 1.96.55 3.446 1.65 4.456 1.1 1.009 2.55 1.514 4.35 1.514 1.74 0 3.134-.505 4.184-1.514 1.05-1.01 1.575-2.496 1.575-4.456v-9.329c0-1.92-.554-3.39-1.665-4.41-1.109-1.02-2.544-1.53-4.304-1.53-1.781 0-3.19.505-4.23 1.516-1.04 1.009-1.56 2.484-1.56 4.424" clip-path="url(#j)"/><path transform="matrix(1.3333 0 0 -1.3333 101.63 435.27)" d="M0 0c.739 0 1.25.245 1.529.735.281.491.42 1.215.42 2.175s-.135 1.68-.404 2.16c-.271.48-.785.72-1.545.72h-1.92V0zm-1.92-3.3v-8.309h-3.69V9.09H.029c2.04 0 3.486-.49 4.335-1.47.851-.98 1.276-2.55 1.276-4.71 0-1.38-.191-2.53-.571-3.45s-1-1.609-1.86-2.069l3.091-9H2.46L-.15-3.3z" clip-path="url(#k)"/><path transform="matrix(1.3333 0 0 -1.3333 124.68 431.83)" d="M0 0c0 1.1-.154 1.91-.465 2.43-.309.52-.854.78-1.635.78h-1.799v-6.42H-2.1c.781 0 1.326.26 1.635.78C-.154-1.91 0-1.1 0 0m3.69 0c0-2.2-.445-3.84-1.335-4.92S.021-6.54-1.979-6.54h-1.92v-7.649H-7.56V6.51h5.581c2.04 0 3.495-.54 4.364-1.62C3.255 3.81 3.69 2.18 3.69 0" clip-path="url(#l)"/><path transform="matrix(1.3333 0 0 -1.3333 140.77 429.79)" d="m0 0-1.74-8.4h3.479zm-2.431-11.7-.84-4.02H-7.11L-1.8 4.979h3.6L7.079-15.72h-3.84l-.84 4.02z" clip-path="url(#m)"/><path transform="matrix(1.3333 0 0 -1.3333 153.71 443.15)" d="M0 0v9.329c0 1.96.55 3.445 1.65 4.455S4.2 15.299 6 15.299c1.72 0 3.11-.5 4.17-1.5 1.059-1 1.59-2.52 1.59-4.56v-.63H8.07v.6c0 .94-.195 1.635-.585 2.085s-.915.675-1.575.675c-.78 0-1.345-.27-1.695-.81S3.69 9.81 3.69 8.729V.42c0-2.021.74-3.03 2.22-3.03.66 0 1.185.23 1.575.69S8.07-.78 8.07.119v.54h3.659V.09c0-2-.554-3.505-1.665-4.515C8.955-5.436 7.53-5.94 5.79-5.94c-1.78 0-3.189.504-4.229 1.515C.521-3.415 0-1.94 0 0" clip-path="url(#n)"/><path transform="matrix(1.3333 0 0 -1.3333 179.18 444.51)" d="M0 0v-4.68h-3.66v20.7H0V6.27l4.41 9.75H8.1L3.779 7.5 8.76-4.68H4.83L1.68 3.33z" clip-path="url(#o)"/><path transform="matrix(1.3333 0 0 -1.3333 210.7 450.75)" d="M0 0h-3.69l-4.32 11.04V0h-3.69v20.699h3.69L-3.69 9.18v11.519H0z" clip-path="url(#p)"/><path transform="matrix(1.3333 0 0 -1.3333 0 474.91)" d="M165.63 18.125h-3.66v20.699h3.66z" clip-path="url(#q)"/><path transform="matrix(1.3333 0 0 -1.3333 241.65 450.75)" d="M0 0h-3.689l-4.32 11.04V0h-3.69v20.699h3.69l4.32-11.519v11.519H0z" clip-path="url(#r)"/><path transform="matrix(1.3333 0 0 -1.3333 246.66 443.15)" d="M0 0v9.329c0 1.96.55 3.445 1.65 4.455S4.2 15.299 6 15.299c1.72 0 3.11-.49 4.17-1.47 1.059-.98 1.59-2.43 1.59-4.35V8.85H8.07v.629c0 .8-.2 1.416-.6 1.845-.4.43-.92.645-1.56.645-.78 0-1.345-.27-1.695-.81S3.69 9.81 3.69 8.729V.42c0-2.021.74-3.03 2.22-3.03.72 0 1.26.245 1.62.735.36.489.54 1.194.54 2.114V2.43H5.88v2.91h5.88V0c0-1.92-.555-3.391-1.665-4.41C8.985-5.431 7.55-5.94 5.79-5.94c-1.78 0-3.189.504-4.229 1.515C.521-3.415 0-1.94 0 0" clip-path="url(#s)"/><path transform="matrix(1.3333 0 0 -1.3333 275.31 429.79)" d="m0 0-1.74-8.4h3.479zm-2.431-11.7-.84-4.02H-7.11L-1.8 4.979h3.6L7.079-15.72h-3.84l-.84 4.02z" clip-path="url(#t)"/><path transform="matrix(1.3333 0 0 -1.3333 296.51 435.27)" d="M0 0c.739 0 1.25.245 1.529.735.281.491.42 1.215.42 2.175s-.135 1.68-.404 2.16c-.271.48-.785.72-1.545.72h-1.92V0zm-1.92-3.3v-8.309h-3.69V9.09H.029c2.04 0 3.486-.49 4.335-1.47.851-.98 1.276-2.55 1.276-4.71 0-1.38-.191-2.53-.571-3.45s-1-1.609-1.86-2.069l3.091-9H2.46L-.15-3.3z" clip-path="url(#u)"/></g><g fill="#fff"><path d="M204.048 297.581h-89.747V132.44h89.747zM222.33 89.062h-89.834l-18.362 39.379h89.834zM208.21 297.58l-.164-165.143 39.543-33.317v164.529zM222.314 85.066h-90.079V64.143h90.08zM226.31 89.062l21.28 6.561-39.544 32.818z"/></g></svg>