<svg viewBox="0 0 361.72 472.25" xmlns="http://www.w3.org/2000/svg"><defs><clipPath id="a"><path transform="translate(-101.33 -47.359)" d="M0 354.185h271.291V0H0Z"/></clipPath><clipPath id="b"><path transform="translate(-113.39 -48.89)" d="M0 354.185h271.291V0H0Z"/></clipPath><clipPath id="c"><path transform="translate(-131.24 -47.359)" d="M0 354.185h271.291V0H0Z"/></clipPath><clipPath id="d"><path transform="translate(-145.85 -47.359)" d="M0 354.185h271.291V0H0Z"/></clipPath><clipPath id="e"><path transform="translate(-156.56 -45.35)" d="M0 354.185h271.291V0H0Z"/></clipPath><clipPath id="f"><path transform="translate(-171.22 -44.779)" d="M0 354.185h271.291V0H0Z"/></clipPath></defs><path d="M1.333 470.917h359.045V357.534H1.333z" fill="#fff"/><path d="M0 0v472.228h361.711V0zm2.667 361.71h356.377v107.857H2.667z" fill="#007ebf"/><g fill="#1d1d1b"><path transform="matrix(1.3333 0 0 -1.3333 135.11 409.1)" d="M0 0c0 1.1-.154 1.91-.465 2.43-.309.52-.854.78-1.635.78h-1.799v-6.42H-2.1c.781 0 1.326.26 1.635.78C-.154-1.91 0-1.1 0 0m3.69 0c0-2.2-.445-3.84-1.335-4.92S.021-6.54-1.979-6.54h-1.92v-7.649H-7.56V6.51h5.581c2.04 0 3.495-.54 4.364-1.62C3.255 3.81 3.69 2.18 3.69 0" clip-path="url(#a)"/><path transform="matrix(1.3333 0 0 -1.3333 151.19 407.06)" d="m0 0-1.74-8.4h3.479zm-2.431-11.7-.84-4.02H-7.11L-1.8 4.979h3.6L7.079-15.72h-3.84l-.84 4.02z" clip-path="url(#b)"/><path transform="matrix(1.3333 0 0 -1.3333 174.99 409.1)" d="M0 0c0 1.1-.154 1.91-.465 2.43-.309.52-.854.78-1.635.78h-1.799v-6.42H-2.1c.781 0 1.326.26 1.635.78C-.154-1.91 0-1.1 0 0m3.69 0c0-2.2-.445-3.84-1.335-4.92S.021-6.54-1.979-6.54h-1.92v-7.649H-7.56V6.51h5.581c2.04 0 3.495-.54 4.364-1.62C3.255 3.81 3.69 2.18 3.69 0" clip-path="url(#c)"/><path transform="matrix(1.3333 0 0 -1.3333 194.46 409.1)" d="M0 0c0 1.1-.154 1.91-.465 2.43-.309.52-.854.78-1.635.78h-1.799v-6.42H-2.1c.781 0 1.326.26 1.635.78C-.154-1.91 0-1.1 0 0m3.69 0c0-2.2-.445-3.84-1.335-4.92S.021-6.54-1.979-6.54h-1.92v-7.649H-7.56V6.51h5.581c2.04 0 3.495-.54 4.364-1.62C3.255 3.81 3.69 2.18 3.69 0" clip-path="url(#d)"/><path transform="matrix(1.3333 0 0 -1.3333 208.74 411.78)" d="M0 0h4.8v-3.3H0v-5.58h5.58v-3.3h-9.24v20.7h9.24V5.189H0z" clip-path="url(#e)"/><path transform="matrix(1.3333 0 0 -1.3333 228.29 412.54)" d="M0 0c.739 0 1.25.245 1.529.735.281.491.42 1.215.42 2.175s-.135 1.68-.404 2.16c-.271.48-.785.72-1.545.72h-1.92V0zm-1.92-3.3v-8.309h-3.69V9.09H.029c2.04 0 3.486-.49 4.335-1.47.851-.98 1.276-2.55 1.276-4.71 0-1.38-.191-2.53-.571-3.45s-1-1.609-1.859-2.069l3.09-9H2.46L-.15-3.3z" clip-path="url(#f)"/></g><g fill="#fff"><path d="m178.75 147.08-.016-68.061-67.976 68.061Z"/><path d="M182.96 75.395v75.898h-75.929v135.023h147.65V75.388z"/></g></svg>