<svg viewBox="0 0 361.72 474.91" xmlns="http://www.w3.org/2000/svg"><defs><clipPath id="a"><path transform="translate(-24.441 -44.718)" d="M0 356.185h271.291V0H0Z"/></clipPath><clipPath id="b"><path transform="translate(-34.297 -50.693)" d="M0 356.185h271.291V0H0Z"/></clipPath><clipPath id="c"><path transform="translate(-48.52 -46.122)" d="M0 356.185h271.291V0H0Z"/></clipPath><clipPath id="d"><path transform="translate(-57.167 -37.118)" d="M0 356.185h271.291V0H0Z"/></clipPath><clipPath id="e"><path transform="translate(-76.803 -47.636)" d="M0 356.185h271.291V0H0Z"/></clipPath><clipPath id="f"><path transform="translate(-86.376 -42.79)" d="M0 356.185h271.291V0H0Z"/></clipPath><clipPath id="g"><path d="M0 356.185h271.291V0H0Z"/></clipPath><clipPath id="h"><path transform="translate(-113.84 -42.35)" d="M0 356.185h271.291V0H0Z"/></clipPath><clipPath id="i"><path transform="translate(-129.71 -44.718)" d="M0 356.185h271.291V0H0Z"/></clipPath><clipPath id="j"><path transform="translate(-140.79 -46.122)" d="M0 356.185h271.291V0H0Z"/></clipPath><clipPath id="k"><path transform="translate(-149.7 -36.925)" d="M0 356.185h271.291V0H0Z"/></clipPath><clipPath id="l"><path transform="translate(-167.23 -35.988)" d="M0 356.185h271.291V0H0Z"/></clipPath><clipPath id="m"><path transform="translate(-188.93 -31.692)" d="M0 356.185h271.291V0H0Z"/></clipPath><clipPath id="n"><path d="M0 356.185h271.291V0H0Z"/></clipPath><clipPath id="o"><path transform="translate(-210.24 -31.692)" d="M0 356.185h271.291V0H0Z"/></clipPath><clipPath id="p"><path transform="translate(-213.69 -36.925)" d="M0 356.185h271.291V0H0Z"/></clipPath><clipPath id="q"><path transform="translate(-233.41 -46.122)" d="M0 356.185h271.291V0H0Z"/></clipPath><clipPath id="r"><path transform="translate(-248.01 -42.35)" d="M0 356.185h271.291V0H0Z"/></clipPath><clipPath id="s"><path transform="translate(-166.25 -193.71)" d="M0 356.185h271.291V0H0Z"/></clipPath></defs><path d="M1.333 473.577h359.045V360.194H1.333z" fill="#fff"/><path d="M0 0v474.895h361.711V0zm2.667 361.711h356.377v110.523H2.667z" fill="#952a86"/><g fill="#161412"><path transform="matrix(1.3333 0 0 -1.3333 32.588 415.29)" d="M0 0c0 1.009-.142 1.753-.427 2.229-.284.479-.784.717-1.5.717h-1.652v-5.893h1.652c.716 0 1.216.239 1.5.717C-.142-1.754 0-1.01 0 0m3.388 0c0-2.02-.409-3.525-1.226-4.517-.817-.991-2.143-1.487-3.979-1.487h-1.762v-7.021h-3.36v19h5.122c1.873 0 3.208-.496 4.006-1.487C2.988 3.496 3.388 2 3.388 0" clip-path="url(#a)"/><path transform="matrix(1.3333 0 0 -1.3333 45.729 407.32)" d="M0 0v-15.971h5.094V-19h-8.481V0z" clip-path="url(#b)"/><path transform="matrix(1.3333 0 0 -1.3333 64.693 413.42)" d="m0 0-1.597-7.711h3.194zm-2.231-10.74-.771-3.69h-3.524l4.874 19h3.304l4.846-19H2.974l-.771 3.69z" clip-path="url(#c)"/><path transform="matrix(1.3333 0 0 -1.3333 76.223 425.42)" d="M0 0h3.194c.036-.937.225-1.626.565-2.065.339-.442.84-.663 1.5-.663.661 0 1.143.204 1.446.607.303.404.455 1.047.455 1.928 0 .734-.171 1.317-.511 1.748-.339.431-.913.831-1.721 1.197l-1.293.579C2.404 3.882 1.519 4.562.977 5.369.436 6.177.165 7.26.165 8.618c0 1.597.463 2.873 1.39 3.827.927.955 2.18 1.433 3.759 1.433 1.561 0 2.768-.473 3.622-1.418.853-.946 1.307-2.309 1.362-4.09H7.187c-.019.863-.17 1.511-.455 1.942-.284.431-.756.647-1.418.647-1.23 0-1.845-.726-1.845-2.176 0-.66.152-1.188.454-1.583.304-.395.813-.748 1.529-1.06l1.239-.551c1.322-.587 2.281-1.321 2.877-2.203.597-.881.896-2.056.896-3.525 0-1.761-.459-3.12-1.377-4.075-.918-.954-2.221-1.432-3.91-1.432-1.671 0-2.947.487-3.828 1.459C.468-3.213.018-1.818 0 0" clip-path="url(#d)"/><path transform="matrix(1.3333 0 0 -1.3333 102.4 411.4)" d="M0 0v-15.943h-3.36V0h-3.304v3.057h9.94V0z" clip-path="url(#e)"/><path transform="matrix(1.3333 0 0 -1.3333 115.17 417.86)" d="M0 0h4.406v-3.057H0v-8.041h-3.388v19h8.482V4.846H0z" clip-path="url(#f)"/><path transform="matrix(1.3333 0 0 -1.3333 0 474.91)" d="M103.26 52.428h-2.561v3.139h2.561zm-1.404-15.117v7.627c0 .972-.166 1.712-.496 2.216-.33.505-.826.757-1.487.757-.716 0-1.234-.247-1.556-.743-.321-.495-.481-1.238-.481-2.23v-7.627c0-1.855.678-2.782 2.037-2.782.643 0 1.134.243 1.473.73.34.486.51 1.171.51 2.052m-2.892 15.117h-2.561v3.139h2.561zm-4.516-15.503v8.563c0 1.799.505 3.163 1.515 4.09s2.341 1.39 3.993 1.39c1.597 0 2.877-.463 3.841-1.39.963-.927 1.446-2.291 1.446-4.09v-8.563c0-1.762-.51-3.112-1.529-4.048-1.018-.936-2.336-1.405-3.951-1.405-1.634 0-2.928.464-3.882 1.391-.955.927-1.433 2.281-1.433 4.062" clip-path="url(#g)"/><path transform="matrix(1.3333 0 0 -1.3333 151.79 418.45)" d="M0 0c.678 0 1.147.225 1.404.675.257.449.385 1.115.385 1.996s-.123 1.542-.371 1.982c-.249.441-.721.661-1.418.661h-1.763V0zm-1.763-3.029v-7.628H-5.15v19H.027c1.872 0 3.199-.449 3.979-1.349.781-.9 1.171-2.341 1.171-4.323 0-1.267-.175-2.322-.524-3.167s-.918-1.478-1.708-1.9l2.838-8.261H2.258L-.138-3.029z" clip-path="url(#h)"/><path transform="matrix(1.3333 0 0 -1.3333 172.95 415.29)" d="M0 0c0 1.009-.142 1.753-.427 2.229-.284.479-.784.717-1.5.717h-1.652v-5.893h1.652c.716 0 1.216.239 1.5.717C-.142-1.754 0-1.01 0 0m3.388 0c0-2.02-.409-3.525-1.226-4.517-.817-.991-2.143-1.487-3.979-1.487h-1.762v-7.021h-3.36v19h5.122c1.873 0 3.208-.496 4.006-1.487C2.988 3.496 3.388 2 3.388 0" clip-path="url(#i)"/><path transform="matrix(1.3333 0 0 -1.3333 187.71 413.42)" d="m0 0-1.597-7.711h3.194zm-2.23-10.74-.772-3.69h-3.524l4.875 19h3.303l4.846-19H2.974l-.771 3.69z" clip-path="url(#j)"/><path transform="matrix(1.3333 0 0 -1.3333 199.6 425.68)" d="M0 0v8.563c0 1.799.505 3.163 1.515 4.09 1.009.927 2.34 1.39 3.993 1.39 1.578 0 2.854-.459 3.827-1.377s1.46-2.312 1.46-4.185v-.578H7.408v.55c0 .863-.179 1.501-.537 1.914s-.84.619-1.446.619c-.716 0-1.235-.247-1.556-.743-.321-.495-.481-1.238-.481-2.23V.386c0-1.855.678-2.782 2.037-2.782.606 0 1.088.211 1.446.634.358.422.537 1.046.537 1.871v.496h3.359V.083c0-1.836-.509-3.218-1.529-4.145-1.017-.927-2.326-1.391-3.923-1.391-1.634 0-2.927.464-3.882 1.391S0-1.781 0 0" clip-path="url(#k)"/><path transform="matrix(1.3333 0 0 -1.3333 222.97 426.93)" d="M0 0v-4.296h-3.359v19H0V5.755l4.048 8.949h3.387L3.469 6.885 8.041-4.296H4.434L1.542 3.057z" clip-path="url(#l)"/><path transform="matrix(1.3333 0 0 -1.3333 251.91 432.66)" d="M0 0h-3.387l-3.965 10.134V0h-3.387v19h3.387l3.965-10.573V19H0z" clip-path="url(#m)"/><path transform="matrix(1.3333 0 0 -1.3333 0 474.91)" d="M195.91 31.693h-3.36v19h3.36z" clip-path="url(#n)"/><path transform="matrix(1.3333 0 0 -1.3333 280.32 432.66)" d="M0 0h-3.388l-3.965 10.134V0h-3.387v19h3.387l3.965-10.573V19H0z" clip-path="url(#o)"/><path transform="matrix(1.3333 0 0 -1.3333 284.92 425.68)" d="M0 0v8.563c0 1.799.505 3.163 1.515 4.09 1.009.927 2.34 1.39 3.993 1.39 1.578 0 2.854-.449 3.827-1.349s1.46-2.23 1.46-3.993v-.578H7.408v.578c0 .735-.183 1.299-.552 1.694-.366.394-.843.591-1.431.591-.716 0-1.235-.247-1.556-.743-.321-.495-.481-1.238-.481-2.23V.386c0-1.855.678-2.782 2.037-2.782.661 0 1.156.225 1.487.675.33.45.496 1.096.496 1.941v2.01H5.397v2.671h5.398V0c0-1.762-.51-3.112-1.528-4.048-1.019-.936-2.337-1.405-3.953-1.405-1.633 0-2.927.464-3.881 1.391C.478-3.135 0-1.781 0 0" clip-path="url(#p)"/><path transform="matrix(1.3333 0 0 -1.3333 311.21 413.42)" d="m0 0-1.598-7.711h3.195zm-2.231-10.74-.771-3.69h-3.524l4.874 19h3.304l4.846-19H2.974l-.772 3.69z" clip-path="url(#q)"/><path transform="matrix(1.3333 0 0 -1.3333 330.67 418.45)" d="M0 0c.679 0 1.147.225 1.404.675.257.449.386 1.115.386 1.996s-.124 1.542-.371 1.982c-.249.441-.721.661-1.419.661h-1.762V0zm-1.762-3.029v-7.628h-3.387v19H.027c1.873 0 3.2-.449 3.98-1.349s1.17-2.341 1.17-4.323c0-1.267-.175-2.322-.524-3.167a3.675 3.675 0 0 0-1.707-1.9l2.837-8.261H2.259L-.138-3.029z" clip-path="url(#r)"/></g><path transform="matrix(1.3333 0 0 -1.3333 221.67 216.63)" d="M0 0c0-3.271-2.677-5.948-5.948-5.948h-.049c-3.272 0-5.948 2.677-5.948 5.948v39.296c0 3.271 2.676 5.948 5.948 5.948h.049c3.271 0 5.948-2.677 5.948-5.948zm4.201 62.033-26.98 24.489v34.082l-25.596.075V86.528l-19.071-25.887c-6.023-7.802-5.811-16.439-5.811-20.602 0-.247-.008-.467-.008-.72v-98.85c0-4.137 3.557-7.492 7.945-7.492H4.104c4.388 0 7.945 3.355 7.945 7.492V39.56c0 .309.005.599.005.914 0 5.129-.528 14.722-7.853 21.559" clip-path="url(#s)" fill="#fff"/></svg>