<svg viewBox="0 0 361.72 474.91" xmlns="http://www.w3.org/2000/svg"><defs><clipPath id="a"><path transform="translate(-16.452 -47.341)" d="M0 356.185h271.291V0H0Z"/></clipPath><clipPath id="b"><path transform="translate(-26.983 -53.873)" d="M0 356.185h271.291V0H0Z"/></clipPath><clipPath id="c"><path transform="translate(-42.289 -48.876)" d="M0 356.185h271.291V0H0Z"/></clipPath><clipPath id="d"><path transform="translate(-51.495 -39.031)" d="M0 356.185h271.291V0H0Z"/></clipPath><clipPath id="e"><path transform="translate(-72.72 -50.531)" d="M0 356.185h271.291V0H0Z"/></clipPath><clipPath id="f"><path transform="translate(-82.941 -45.234)" d="M0 356.185h271.291V0H0Z"/></clipPath><clipPath id="g"><path d="M0 356.185h271.291V0H0Z"/></clipPath><clipPath id="h"><path transform="translate(-112.48 -44.751)" d="M0 356.185h271.291V0H0Z"/></clipPath><clipPath id="i"><path transform="translate(-129.59 -47.341)" d="M0 356.185h271.291V0H0Z"/></clipPath><clipPath id="j"><path transform="translate(-141.45 -48.876)" d="M0 356.185h271.291V0H0Z"/></clipPath><clipPath id="k"><path transform="translate(-150.95 -38.82)" d="M0 356.185h271.291V0H0Z"/></clipPath><clipPath id="l"><path transform="translate(-169.87 -37.797)" d="M0 356.185h271.291V0H0Z"/></clipPath><clipPath id="m"><path transform="translate(-193.36 -33.101)" d="M0 356.185h271.291V0H0Z"/></clipPath><clipPath id="n"><path d="M0 356.185h271.291V0H0Z"/></clipPath><clipPath id="o"><path transform="translate(-216.17 -33.101)" d="M0 356.185h271.291V0H0Z"/></clipPath><clipPath id="p"><path transform="translate(-219.69 -38.82)" d="M0 356.185h271.291V0H0Z"/></clipPath><clipPath id="q"><path transform="translate(-241.01 -48.876)" d="M0 356.185h271.291V0H0Z"/></clipPath><clipPath id="r"><path transform="translate(-256.72 -44.751)" d="M0 356.185h271.291V0H0Z"/></clipPath><clipPath id="s"><path transform="translate(-133.13 -274.15)" d="M0 356.185h271.291V0H0Z"/></clipPath><clipPath id="t"><path transform="translate(-209.24 -199.29)" d="M0 356.185h271.291V0H0Z"/></clipPath></defs><path d="M1.333 360.388h359.045V1.343H1.333z" fill="#932683"/><path d="M0 361.722h361.711V.012H0zM2.667 2.678h356.377v356.378H2.667z" fill="#932683"/><path d="M1.333 473.577h359.045V360.194H1.333z" fill="#fff"/><path d="M0 474.91h361.711V358.86H0zm2.667-113.382h356.377v110.715H2.667z" fill="#932683"/><g fill="#1a171b"><path transform="matrix(1.3333 0 0 -1.3333 21.936 411.79)" d="M0 0c0 1.104-.155 1.916-.467 2.438-.31.522-.857.783-1.64.783h-1.806v-6.443h1.806c.783 0 1.33.261 1.64.784C-.155-1.917 0-1.104 0 0m3.703 0c0-2.208-.446-3.854-1.34-4.937C1.471-6.021.021-6.563-1.986-6.563h-1.927v-7.677h-3.673V6.532h5.6c2.047 0 3.507-.542 4.38-1.625C3.267 3.823 3.703 2.188 3.703 0" clip-path="url(#a)"/><path transform="matrix(1.3333 0 0 -1.3333 35.978 403.08)" d="M0 0v-17.461h5.569v-3.311h-9.272V0z" clip-path="url(#b)"/><path transform="matrix(1.3333 0 0 -1.3333 56.385 409.75)" d="m0 0-1.746-8.43h3.492zm-2.438-11.741-.843-4.034h-3.854l5.328 20.772h3.614l5.297-20.772H3.251l-.843 4.034z" clip-path="url(#c)"/><path transform="matrix(1.3333 0 0 -1.3333 68.66 422.87)" d="M0 0h3.492c.04-1.023.246-1.776.617-2.258.371-.481.918-.722 1.641-.722s1.25.22 1.581.662.496 1.144.496 2.107c0 .803-.185 1.44-.556 1.912-.372.472-.999.908-1.882 1.31l-1.415.632c-1.345.602-2.313 1.344-2.906 2.228-.591.883-.887 2.067-.887 3.552 0 1.746.506 3.141 1.52 4.184 1.014 1.044 2.383 1.567 4.11 1.567 1.706 0 3.025-.518 3.959-1.551.932-1.034 1.429-2.524 1.49-4.471H7.857c-.019.944-.185 1.651-.497 2.122-.31.472-.827.708-1.549.708-1.345 0-2.018-.793-2.018-2.378 0-.723.166-1.299.497-1.731s.888-.818 1.671-1.159l1.354-.603c1.446-.641 2.495-1.444 3.147-2.408s.978-2.248.978-3.853c0-1.927-.502-3.413-1.505-4.456S7.506-6.172 5.66-6.172c-1.827 0-3.222.532-4.184 1.596C.512-3.512.021-1.987 0 0" clip-path="url(#d)"/><path transform="matrix(1.3333 0 0 -1.3333 96.959 407.54)" d="M0 0v-17.431h-3.673V0h-3.612v3.342H3.583V0z" clip-path="url(#e)"/><path transform="matrix(1.3333 0 0 -1.3333 110.59 414.6)" d="M0 0h4.816v-3.342H0v-8.791h-3.703V8.64h9.272V5.298H0z" clip-path="url(#f)"/><path transform="matrix(1.3333 0 0 -1.3333 0 474.91)" d="M101.16 55.771h-2.8v3.432h2.8zm-1.535-16.529v8.339c0 1.065-.181 1.872-.542 2.424-.362.552-.904.828-1.625.828-.783 0-1.351-.271-1.701-.813-.352-.542-.528-1.355-.528-2.439v-8.339c0-2.027.743-3.041 2.229-3.041.702 0 1.239.267 1.61.798.371.532.557 1.279.557 2.243m-3.161 16.529h-2.8v3.432h2.8zM91.526 38.82v9.364c0 1.967.553 3.457 1.656 4.47 1.104 1.014 2.559 1.521 4.366 1.521 1.746 0 3.146-.507 4.2-1.521 1.053-1.013 1.58-2.503 1.58-4.47V38.82c0-1.926-.557-3.401-1.671-4.424-1.114-1.025-2.554-1.536-4.32-1.536-1.786 0-3.202.506-4.244 1.52-1.044 1.014-1.567 2.494-1.567 4.44" clip-path="url(#g)"/><path transform="matrix(1.3333 0 0 -1.3333 149.98 415.25)" d="M0 0c.742 0 1.254.246 1.535.738.281.491.421 1.219.421 2.183 0 .963-.135 1.685-.406 2.167s-.787.723-1.55.723h-1.927V0zm-1.927-3.312v-8.338H-5.63V9.122H.029c2.048 0 3.498-.491 4.351-1.475.853-.983 1.279-2.559 1.279-4.726 0-1.385-.19-2.539-.571-3.462-.382-.924-1.004-1.616-1.867-2.078l3.101-9.031H2.469l-2.62 8.338z" clip-path="url(#h)"/><path transform="matrix(1.3333 0 0 -1.3333 172.79 411.79)" d="M0 0c0 1.104-.155 1.916-.466 2.438s-.858.783-1.641.783h-1.806v-6.443h1.806c.783 0 1.33.261 1.641.784C-.155-1.917 0-1.104 0 0m3.703 0c0-2.208-.446-3.854-1.34-4.937C1.471-6.021.021-6.563-1.986-6.563h-1.927v-7.677h-3.673V6.532h5.6c2.047 0 3.507-.542 4.38-1.625C3.267 3.823 3.703 2.188 3.703 0" clip-path="url(#i)"/><path transform="matrix(1.3333 0 0 -1.3333 188.6 409.75)" d="m0 0-1.746-8.43h3.492zm-2.438-11.741-.843-4.034h-3.854l5.329 20.772h3.613l5.298-20.772H3.252l-.844 4.034z" clip-path="url(#j)"/><path transform="matrix(1.3333 0 0 -1.3333 201.27 423.15)" d="M0 0v9.363c0 1.967.553 3.457 1.656 4.471 1.104 1.014 2.559 1.52 4.365 1.52 1.727 0 3.122-.501 4.185-1.505 1.064-1.003 1.596-2.529 1.596-4.577v-.631H8.099v.602c0 .944-.196 1.641-.587 2.092-.392.452-.918.678-1.58.678-.784 0-1.351-.272-1.702-.814s-.527-1.354-.527-2.438V.422c0-2.027.743-3.041 2.229-3.041.662 0 1.188.231 1.58.692.391.462.587 1.145.587 2.048v.542h3.672V.091c0-2.007-.556-3.518-1.67-4.531-1.114-1.014-2.544-1.521-4.29-1.521-1.787 0-3.202.507-4.245 1.521C.522-3.427 0-1.946 0 0" clip-path="url(#k)"/><path transform="matrix(1.3333 0 0 -1.3333 226.5 424.52)" d="M0 0v-4.696h-3.673v20.772H0V6.292l4.426 9.784h3.702l-4.335-8.55L8.791-4.696H4.847L1.686 3.342z" clip-path="url(#l)"/><path transform="matrix(1.3333 0 0 -1.3333 257.81 430.78)" d="M0 0h-3.703l-4.335 11.079V0h-3.703v20.772h3.703l4.335-11.56v11.56H0z" clip-path="url(#m)"/><path transform="matrix(1.3333 0 0 -1.3333 0 474.91)" d="M200.74 33.101h-3.673v20.772h3.673z" clip-path="url(#n)"/><path transform="matrix(1.3333 0 0 -1.3333 288.22 430.78)" d="M0 0h-3.703l-4.335 11.079V0h-3.703v20.772h3.703l4.335-11.56v11.56H0z" clip-path="url(#o)"/><path transform="matrix(1.3333 0 0 -1.3333 292.92 423.15)" d="M0 0v9.363c0 1.967.553 3.457 1.656 4.471 1.104 1.014 2.559 1.52 4.365 1.52 1.727 0 3.122-.492 4.185-1.475 1.064-.983 1.596-2.439 1.596-4.365v-.632H8.099v.632c0 .802-.201 1.42-.602 1.851-.401.432-.924.648-1.565.648-.784 0-1.351-.272-1.702-.814s-.527-1.354-.527-2.438V.422c0-2.027.743-3.041 2.229-3.041.721 0 1.263.246 1.625.738.361.491.542 1.199.542 2.122v2.197H5.901v2.921h5.901V0c0-1.927-.557-3.401-1.671-4.425-1.113-1.024-2.554-1.536-4.32-1.536-1.787 0-3.202.507-4.245 1.521C.522-3.427 0-1.946 0 0" clip-path="url(#p)"/><path transform="matrix(1.3333 0 0 -1.3333 321.34 409.75)" d="m0 0-1.746-8.43h3.492zm-2.438-11.741-.843-4.034h-3.854l5.329 20.772h3.613l5.298-20.772H3.252l-.844 4.034z" clip-path="url(#q)"/><path transform="matrix(1.3333 0 0 -1.3333 342.3 415.25)" d="M0 0c.742 0 1.254.246 1.535.738.281.491.421 1.219.421 2.183 0 .963-.135 1.685-.406 2.167s-.787.723-1.55.723h-1.927V0zm-1.927-3.312v-8.338H-5.63V9.122H.029c2.048 0 3.498-.491 4.351-1.475.853-.983 1.279-2.559 1.279-4.726 0-1.385-.19-2.539-.571-3.462-.382-.924-1.004-1.616-1.867-2.078l3.101-9.031H2.469l-2.62 8.338z" clip-path="url(#r)"/></g><g fill="#fff"><path transform="matrix(1.3333 0 0 -1.3333 177.51 109.39)" d="M0 0c0-3.155-2.582-5.737-5.737-5.737h-37.7c-3.156 0-5.737 2.582-5.737 5.737s2.581 5.737 5.737 5.737h37.7C-2.582 5.737 0 3.155 0 0zm2.476-37.214c0 .133.002.257.004.38.001.106.003.211.003.323l-.001.398c-.006 4.173-.019 12.855 5.921 20.647L26.479 9.346v10.805c-15.039 1.9-42.962 1.445-54.749 1.445-52.293 0-53.613 2.652-53.642 2.833l2.384-47.676c1.391-13.01 3.543-26.395 10.46-37.378.652-1.036 1.372-2.139 1.335-3.372-.029-.968-.524-1.845-.972-2.697-4.205-7.996-5.251-16.944-6.22-25.982l-2.086-19.441c-.571-5.318-.555-8.87-1.126-14.188-.047-1.976-1.934-3.684-3.129-5.232-1.194-1.548-1.564-5.031-1.666-7.865 2.466-.94 18.413-.551 31.906-.076 8.6.303 16.339 1.334 18.478 1.595 11.751 1.436 23.927 1.681 36.082 1.451a9.888 9.888 0 0 0-1.058 4.434z" clip-path="url(#s)"/><path transform="matrix(1.3333 0 0 -1.3333 278.99 209.19)" d="M0 0c0-3.142-2.571-5.713-5.713-5.713h-.048c-3.142 0-5.713 2.571-5.713 5.713v37.748c0 3.142 2.571 5.713 5.713 5.713h.048C-2.571 43.461 0 40.89 0 37.748zm4.036 59.589-25.917 23.524v32.739l-24.563.072V83.163l-.025-.034v-.01l-.654-.888-18.04-24.763a24.292 24.292 0 0 1-3.648-6.804c-1.649-4.969-1.56-9.539-1.56-12.203 0-.237-.006-.448-.006-.691v-94.955c0-1.695.622-3.251 1.661-4.481 1.398-1.654 3.552-2.716 5.97-2.716H3.943c4.215 0 7.632 3.222 7.632 7.197v95.186c0 .298.004.576.004.879 0 4.926-.506 14.141-7.543 20.709" clip-path="url(#t)"/></g></svg>