<svg viewBox="0 0 361.72 474.91" xmlns="http://www.w3.org/2000/svg"><defs><clipPath id="a"><path transform="translate(-74.188 -44.735)" d="M0 356.185h271.291V0H0Z"/></clipPath><clipPath id="b"><path transform="translate(-87.579 -45.305)" d="M0 356.185h271.291V0H0Z"/></clipPath><clipPath id="c"><path transform="translate(-96.19 -39.035)" d="M0 356.185h271.291V0H0Z"/></clipPath><clipPath id="d"><path transform="translate(-117.58 -50.494)" d="M0 356.185h271.291V0H0Z"/></clipPath><clipPath id="e"><path transform="translate(-129.05 -48.845)" d="M0 356.185h271.291V0H0Z"/></clipPath><clipPath id="f"><path transform="translate(-140.55 -53.824)" d="M0 356.185h271.291V0H0Z"/></clipPath><clipPath id="g"><path transform="translate(-156.51 -45.215)" d="M0 356.185h271.291V0H0Z"/></clipPath><clipPath id="h"><path transform="translate(-170.59 -48.845)" d="M0 356.185h271.291V0H0Z"/></clipPath><clipPath id="i"><path transform="translate(-184.57 -53.824)" d="M0 356.185h271.291V0H0Z"/></clipPath><clipPath id="j"><path transform="translate(-197.16 -53.824)" d="M0 356.185h271.291V0H0Z"/></clipPath><clipPath id="k"><path transform="translate(-120.51 -263.74)" d="M0 356.185h271.291V0H0Z"/></clipPath><clipPath id="l"><path transform="translate(-196.69 -137.22)" d="M0 356.185h271.291V0H0Z"/></clipPath></defs><path d="M1.333 473.577h359.045V360.194H1.333z" fill="#fff"/><path d="M0 0v474.895h361.711V0zm2.667 361.711h356.377v110.523H2.667z" fill="#161412"/><g fill="#1d1d1b"><path transform="matrix(1.3333 0 0 -1.3333 98.917 415.27)" d="M0 0c.739 0 1.25.245 1.529.735.281.491.42 1.215.42 2.175s-.135 1.68-.404 2.16c-.271.48-.785.72-1.545.72h-1.92V0zm-1.92-3.3v-8.309h-3.69V9.09H.029c2.04 0 3.486-.49 4.335-1.47.851-.98 1.276-2.55 1.276-4.71 0-1.38-.191-2.53-.571-3.45s-1-1.609-1.86-2.069l3.091-9H2.46L-.15-3.3z" clip-path="url(#a)"/><path transform="matrix(1.3333 0 0 -1.3333 116.77 414.51)" d="M0 0h4.8v-3.3H0v-5.58h5.58v-3.3h-9.24v20.7h9.24V5.189H0z" clip-path="url(#b)"/><path transform="matrix(1.3333 0 0 -1.3333 128.25 422.87)" d="M0 0h3.479c.041-1.021.246-1.771.616-2.25.37-.48.915-.721 1.634-.721.72 0 1.246.221 1.576.66.33.441.495 1.141.495 2.101 0 .8-.186 1.435-.556 1.904-.37.47-.995.906-1.875 1.305L3.96 3.63c-1.341.599-2.306 1.34-2.896 2.22C.475 6.729.18 7.909.18 9.39c0 1.739.505 3.13 1.514 4.169 1.01 1.04 2.375 1.56 4.095 1.56 1.7 0 3.016-.515 3.945-1.545.93-1.03 1.425-2.514 1.485-4.455h-3.39c-.019.941-.184 1.646-.495 2.115-.31.47-.824.705-1.545.705-1.34 0-2.01-.79-2.01-2.37 0-.719.165-1.295.495-1.724.33-.431.885-.816 1.665-1.156l1.35-.6c1.44-.64 2.485-1.44 3.135-2.4s.975-2.24.975-3.839c0-1.92-.5-3.4-1.5-4.44S7.479-6.15 5.64-6.15c-1.821 0-3.21.53-4.17 1.589C.51-3.5.02-1.98 0 0" clip-path="url(#c)"/><path transform="matrix(1.3333 0 0 -1.3333 156.78 407.59)" d="M0 0v-17.369h-3.66V0h-3.6v3.33H3.569V0z" clip-path="url(#d)"/><path transform="matrix(1.3333 0 0 -1.3333 172.07 409.79)" d="m0 0-1.74-8.4h3.479zm-2.431-11.7-.84-4.02H-7.11L-1.8 4.979h3.6L7.079-15.72h-3.84l-.84 4.02z" clip-path="url(#e)"/><path transform="matrix(1.3333 0 0 -1.3333 187.4 403.15)" d="m0 0 2.49-15.479L5.01 0h4.05L4.41-20.699H.601L-4.05 0Z" clip-path="url(#f)"/><path transform="matrix(1.3333 0 0 -1.3333 208.69 414.63)" d="M0 0h4.8v-3.33H0v-8.76h-3.69V8.609h9.24v-3.33H0z" clip-path="url(#g)"/><path transform="matrix(1.3333 0 0 -1.3333 227.45 409.79)" d="m0 0-1.74-8.4h3.479zm-2.431-11.7-.84-4.02H-7.11L-1.8 4.979h3.6L7.079-15.72h-3.84l-.84 4.02z" clip-path="url(#h)"/><path transform="matrix(1.3333 0 0 -1.3333 246.09 403.15)" d="M0 0v-17.399h5.55v-3.3h-9.24V0z" clip-path="url(#i)"/><path transform="matrix(1.3333 0 0 -1.3333 262.89 403.15)" d="M0 0v-17.399h5.55v-3.3h-9.24V0z" clip-path="url(#j)"/></g><g fill="#fff"><path transform="matrix(1.3333 0 0 -1.3333 160.68 123.25)" d="M0 0h30.344l26.741 21.948s-9.559-3.877-14.44 3.354c-2.598 3.848-4.524 7.273-5.956 9.458-4.632 7.065-9.404-.144-9.404-.144L16.91 7.885l-3.444 37.859c-6.769-20.018-35.253-3.961-29.472-16.307z" clip-path="url(#k)"/><path transform="matrix(1.3333 0 0 -1.3333 262.26 291.95)" d="M0 0c-.259.292-1.905 2.225-3.564 5.66-1.781 3.688-3.49 9.192-3.606 16.398-.012.334-.076 1.838-.06 2.293.054 1.529.1 3.037.138 4.523.685 18.565.379 51.842-9.272 69.874-7.148 13.354-21.328 21.837-29.471 24.385h-30.363c-8.161-2.588-22.461-11.088-29.577-24.385-9.652-18.032-9.958-51.309-9.274-69.874l.118-3.295c.03-.873.025-1.72.01-2.558a69.132 69.132 0 0 0-.024-.925c-.373-13.902-6.746-22.679-7.307-23.424-.022-.03-.155-.248-.155-.248a2.467 2.467 0 0 1-.483-1.462c0-1.434 1.243-2.596 2.775-2.596.444 0 .889.11 1.344.264 2.273.681 13.588 3.911 25.783 3.911 6.995 0 10.918-.756 14.708-1.487 1.004-.194 7.758-1.499 14.155-1.499 7.895 0 15.825.514 25.985 6.655 3.923-1.603 8.03-2.814 12.014-3.737 7.203-1.669 13.996-2.384 18.56-2.684 3.27-.215 5.401-.221 5.7-.216l.015.002.02-.001c1.449 0 2.623 1.155 2.623 2.58C.792-1.122.468-.558 0 0" clip-path="url(#l)"/></g></svg>