<svg viewBox="0 0 361.72 474.91" xmlns="http://www.w3.org/2000/svg"><defs><clipPath id="a"><path transform="translate(-44.176 -36.68)" d="M0 356.185h271.291V0H0Z"/></clipPath><clipPath id="b"><path transform="translate(-73.689 -30.77)" d="M0 356.185h271.291V0H0Z"/></clipPath><clipPath id="c"><path transform="translate(-82.662 -53.658)" d="M0 356.185h271.291V0H0Z"/></clipPath><clipPath id="d"><path transform="translate(-97.965 -42.949)" d="M0 356.185h271.291V0H0Z"/></clipPath><clipPath id="e"><path transform="translate(-110.71 -51.469)" d="M0 356.185h271.291V0H0Z"/></clipPath><clipPath id="f"><path transform="translate(-123.28 -42.949)" d="M0 356.185h271.291V0H0Z"/></clipPath><clipPath id="g"><path transform="translate(-135.99 -35.449)" d="M0 356.185h271.291V0H0Z"/></clipPath><clipPath id="h"><path transform="translate(-154.3 -48.139)" d="M0 356.185h271.291V0H0Z"/></clipPath><clipPath id="i"><path transform="translate(-166.65 -42.379)" d="M0 356.185h271.291V0H0Z"/></clipPath><clipPath id="j"><path transform="translate(-184.04 -36.89)" d="M0 356.185h271.291V0H0Z"/></clipPath><clipPath id="k"><path transform="translate(-203.18 -30.77)" d="M0 356.185h271.291V0H0Z"/></clipPath><clipPath id="l"><path d="M0 356.185h271.291V0H0Z"/></clipPath><clipPath id="m"><path transform="translate(-218.36 -35.449)" d="M0 356.185h271.291V0H0Z"/></clipPath><clipPath id="n"><path transform="translate(-171.19 -215.05)" d="M0 356.185h271.291V0H0Z"/></clipPath><clipPath id="o"><path transform="translate(-103.97 -214.86)" d="M0 356.185h271.291V0H0Z"/></clipPath></defs><path d="M1.333 473.577h359.045V360.194H1.333z" fill="#fff"/><path d="M0 0v474.895h361.711V0zm2.667 361.711h356.377v110.523H2.667z" fill="#f18800"/><g fill="#161412"><path transform="matrix(1.3333 0 0 -1.3333 58.901 426.01)" d="M0 0h3.479c.041-1.021.246-1.771.616-2.25.37-.48.915-.721 1.634-.721.72 0 1.246.221 1.576.66.33.441.495 1.141.495 2.101 0 .8-.186 1.435-.556 1.904-.37.47-.995.906-1.875 1.305L3.96 3.63c-1.341.599-2.306 1.34-2.896 2.22C.475 6.729.18 7.909.18 9.39c0 1.739.505 3.13 1.514 4.169 1.01 1.04 2.375 1.56 4.095 1.56 1.7 0 3.016-.515 3.945-1.545.93-1.03 1.425-2.514 1.485-4.455h-3.39c-.019.941-.184 1.646-.495 2.115-.31.47-.824.705-1.545.705-1.34 0-2.01-.79-2.01-2.37 0-.719.165-1.295.495-1.724.33-.431.885-.816 1.665-1.156l1.35-.6c1.44-.64 2.485-1.44 3.135-2.4s.975-2.24.975-3.839c0-1.92-.5-3.4-1.5-4.44S7.479-6.15 5.64-6.15c-1.821 0-3.21.53-4.17 1.589C.51-3.5.02-1.98 0 0" clip-path="url(#a)"/><path transform="matrix(1.3333 0 0 -1.3333 98.251 433.89)" d="M0 0h-3.689v12.119l-2.64-8.099H-8.31l-2.609 8.009V0h-3.69v20.699h3.69l3.6-10.92 3.63 10.92H0z" clip-path="url(#b)"/><path transform="matrix(1.3333 0 0 -1.3333 110.22 403.37)" d="M0 0c0-.38.13-.699.391-.96.259-.26.58-.39.96-.39.379 0 .694.13.944.39.25.261.375.58.375.96 0 .4-.125.73-.375.99s-.565.39-.944.39C.95 1.38.625 1.25.375.99S0 .4 0 0m1.351-7.169-1.741-8.4h3.48zm-2.431-11.7-.84-4.02h-3.84l5.311 20.7c-.321.259-.571.58-.75.96C-1.38-.85-1.47-.439-1.47 0c0 .82.271 1.5.81 2.04.54.54 1.21.811 2.011.811.799 0 1.469-.271 2.009-.811S4.17.82 4.17 0c0-.439-.09-.85-.27-1.229-.18-.38-.43-.701-.75-.96l5.28-20.7H4.59l-.84 4.02z" clip-path="url(#c)"/><path transform="matrix(1.3333 0 0 -1.3333 130.62 417.65)" d="M0 0h4.8v-3.3H0v-5.58h5.58v-3.3h-9.24v20.7h9.24V5.189H0z" clip-path="url(#d)"/><path transform="matrix(1.3333 0 0 -1.3333 147.61 406.29)" d="M0 0v-17.399h5.55v-3.3h-9.24V0z" clip-path="url(#e)"/><path transform="matrix(1.3333 0 0 -1.3333 164.37 417.65)" d="M0 0h4.8v-3.3H0v-5.58h5.58v-3.3h-9.24v20.7h9.24V5.189H0z" clip-path="url(#f)"/><path transform="matrix(1.3333 0 0 -1.3333 181.32 427.65)" d="M0 0v-4.68h-3.66v20.7H0V6.27l4.41 9.75H8.1L3.779 7.5 8.76-4.68H4.83L1.68 3.33z" clip-path="url(#g)"/><path transform="matrix(1.3333 0 0 -1.3333 205.73 410.73)" d="M0 0v-17.369h-3.66V0h-3.6v3.33H3.569V0z" clip-path="url(#h)"/><path transform="matrix(1.3333 0 0 -1.3333 222.2 418.41)" d="M0 0c.739 0 1.25.245 1.529.735.281.491.42 1.215.42 2.175s-.135 1.68-.404 2.16c-.271.48-.785.72-1.545.72h-1.92V0zm-1.92-3.3v-8.309h-3.69V9.09H.029c2.04 0 3.486-.49 4.335-1.47.851-.98 1.276-2.55 1.276-4.71 0-1.38-.191-2.53-.571-3.45s-1-1.609-1.859-2.069l3.09-9H2.46L-.15-3.3z" clip-path="url(#i)"/><path transform="matrix(1.3333 0 0 -1.3333 245.38 425.73)" d="M0 0v8.31c0 1.059-.181 1.864-.54 2.415-.36.549-.9.824-1.62.824-.78 0-1.345-.27-1.695-.81S-4.38 9.39-4.38 8.31V0c0-2.021.739-3.03 2.22-3.03.7 0 1.235.264 1.604.795C-.186-1.705 0-.96 0 0m-8.07-.42v9.329c0 1.96.549 3.445 1.65 4.455 1.1 1.01 2.55 1.515 4.35 1.515 1.74 0 3.134-.505 4.184-1.515s1.575-2.495 1.575-4.455V-.42c0-1.92-.554-3.391-1.665-4.41C.915-5.851-.521-6.36-2.28-6.36c-1.781 0-3.19.505-4.23 1.515S-8.07-2.36-8.07-.42" clip-path="url(#j)"/><path transform="matrix(1.3333 0 0 -1.3333 270.91 433.89)" d="M0 0h-3.689l-4.32 11.04V0h-3.69v20.699h3.69l4.32-11.519v11.519H0z" clip-path="url(#k)"/><path transform="matrix(1.3333 0 0 -1.3333 0 474.91)" d="M210.78 30.77h-3.66v20.699h3.66z" clip-path="url(#l)"/><path transform="matrix(1.3333 0 0 -1.3333 291.14 427.65)" d="M0 0v-4.68h-3.66v20.7H0V6.27l4.41 9.75H8.1L3.779 7.5 8.76-4.68H4.83L1.68 3.33z" clip-path="url(#m)"/></g><g fill="#fff"><path transform="matrix(1.3333 0 0 -1.3333 228.25 188.19)" d="M0 0a3.847 3.847 0 0 0-3.832-3.854l-63.373-.176a3.848 3.848 0 0 0-3.854 3.833l-.223 80.657a3.846 3.846 0 0 0 3.833 3.854l63.372.176a3.848 3.848 0 0 0 3.854-3.833zm-3.725-26.785a1.121 1.121 0 0 0-1.119-1.126l-13.119-.037c-.62-.001-1.124.5-1.126 1.12l-.019 7.357a1.122 1.122 0 0 0 1.119 1.126l13.119.036c.62.002 1.124-.5 1.126-1.12zm.054-19.24a1.122 1.122 0 0 0-1.12-1.126l-13.118-.037c-.62-.001-1.124.5-1.126 1.12l-.021 7.357c-.002.62.5 1.124 1.12 1.126l13.119.036c.62.002 1.124-.5 1.126-1.12zm.053-19.241a1.122 1.122 0 0 0-1.119-1.126l-13.119-.036a1.122 1.122 0 0 0-1.126 1.119l-.02 7.358a1.122 1.122 0 0 0 1.119 1.126l13.119.036c.62.002 1.124-.5 1.126-1.12zm-24.155 38.414a1.123 1.123 0 0 0-1.12-1.126l-13.118-.036a1.121 1.121 0 0 0-1.126 1.119l-.021 7.357c-.002.621.5 1.124 1.12 1.126l13.118.037c.62.001 1.125-.5 1.126-1.12zm.053-19.24a1.123 1.123 0 0 0-1.12-1.126l-13.118-.037a1.123 1.123 0 0 0-1.126 1.12l-.02 7.357a1.122 1.122 0 0 0 1.119 1.126l13.119.036a1.122 1.122 0 0 0 1.126-1.119zm.053-19.24a1.123 1.123 0 0 0-1.119-1.127l-13.119-.036c-.62-.001-1.124.5-1.126 1.12l-.02 7.356a1.121 1.121 0 0 0 1.119 1.126l13.119.038c.62.001 1.125-.5 1.126-1.121zm-24.155 38.414a1.122 1.122 0 0 0-1.12-1.126l-13.119-.037a1.123 1.123 0 0 0-1.126 1.12l-.02 7.357c-.001.62.5 1.124 1.12 1.125l13.119.037c.62.002 1.124-.5 1.126-1.12zm.053-19.241c.002-.62-.5-1.124-1.12-1.126l-13.118-.036c-.62-.002-1.124.5-1.126 1.12l-.02 7.356a1.122 1.122 0 0 0 1.119 1.126l13.119.037c.62.001 1.124-.5 1.126-1.12zm.053-19.24a1.122 1.122 0 0 0-1.119-1.126l-13.119-.037c-.62-.001-1.124.5-1.126 1.121l-.02 7.356a1.123 1.123 0 0 0 1.12 1.126l13.118.036a1.122 1.122 0 0 0 1.126-1.119zM1.147 92.021l-73.862-.205c-3.454-.009-6.273-2.843-6.264-6.298l.444-160.28c.01-3.455 2.844-6.273 6.298-6.263l73.862.204c3.455.01 6.273 2.844 6.264 6.299l-.444 160.28c-.009 3.455-2.843 6.274-6.298 6.264" clip-path="url(#n)"/><path transform="matrix(1.3333 0 0 -1.3333 138.63 188.43)" d="m0 0 63.375.173-.22 80.66-63.376-.174z" clip-path="url(#o)"/></g></svg>