<svg viewBox="0 0 361.72 474.91" xmlns="http://www.w3.org/2000/svg"><defs><clipPath id="a"><path transform="translate(-104.91 -37.249)" d="M0 356.185h271.291V0H0Z"/></clipPath><clipPath id="b"><path transform="translate(-124.59 -33.14)" d="M0 356.185h271.291V0H0Z"/></clipPath><clipPath id="c"><path d="M0 356.185h271.291V0H0Z"/></clipPath><clipPath id="d"><path transform="translate(-147.81 -33.14)" d="M0 356.185h271.291V0H0Z"/></clipPath><clipPath id="e"><path transform="translate(-151.56 -38.84)" d="M0 356.185h271.291V0H0Z"/></clipPath><clipPath id="f"><path transform="translate(-173.05 -48.86)" d="M0 356.185h271.291V0H0Z"/></clipPath><clipPath id="g"><path transform="translate(-188.95 -44.749)" d="M0 356.185h271.291V0H0Z"/></clipPath><clipPath id="h"><path transform="translate(-45.23 -158.27)" d="M0 356.185h271.291V0H0Z"/></clipPath><clipPath id="i"><path transform="translate(-40.123 -174.18)" d="M0 356.185h271.291V0H0Z"/></clipPath><clipPath id="j"><path transform="translate(-57.886 -199.38)" d="M0 356.185h271.291V0H0Z"/></clipPath><clipPath id="k"><path transform="translate(-137.55 -262.91)" d="M0 356.185h271.291V0H0Z"/></clipPath><clipPath id="l"><path transform="translate(-137.55 -246.56)" d="M0 356.185h271.291V0H0Z"/></clipPath><clipPath id="m"><path transform="translate(-137.55 -230.9)" d="M0 356.185h271.291V0H0Z"/></clipPath><clipPath id="n"><path transform="translate(-63.12 -213.89)" d="M0 356.185h271.291V0H0Z"/></clipPath><clipPath id="o"><path transform="translate(-57.886 -197.88)" d="M0 356.185h271.291V0H0Z"/></clipPath><clipPath id="p"><path d="M0 356.185h271.291V0H0Z"/></clipPath><clipPath id="q"><path transform="translate(-231.17 -174.18)" d="M0 356.185h271.291V0H0Z"/></clipPath><clipPath id="r"><path transform="translate(-40.123 -163.38)" d="M0 356.185h271.291V0H0Z"/></clipPath><clipPath id="s"><path transform="translate(-68.138 -231.3)" d="M0 356.185h271.291V0H0Z"/></clipPath></defs><path d="M1.333 360.388h359.045V1.343H1.333z" fill="#007ebf"/><path d="M0 361.722h361.711V.012H0zM2.667 2.678h356.377v356.378H2.667z" fill="#007ebf"/><path d="M1.333 473.577h359.045V360.194H1.333z" fill="#fff"/><path d="M0 474.91h361.711V358.86H0zm2.667-113.382h356.377v110.715H2.667z" fill="#007ebf"/><g fill="#1d1d1b"><path d="M111.07 407.57v23.158h-4.88V407.57h-4.8v-4.44h14.439v4.44zM125.005 430.724h-4.88v-27.598h4.88z"/><path transform="matrix(1.3333 0 0 -1.3333 139.88 425.25)" d="M0 0c.37.54.555 1.29.555 2.25v7.771c0 1.059-.18 1.864-.54 2.414s-.9.825-1.62.825h-1.98V-.81h1.98C-.905-.81-.37-.539 0 0m-1.516 16.59c1.741 0 3.136-.5 4.186-1.5s1.574-2.48 1.574-4.44V1.83c0-1.939-.55-3.415-1.649-4.425-1.1-1.009-2.531-1.514-4.29-1.514h-5.55V16.59z" clip-path="url(#a)"/><path transform="matrix(1.3333 0 0 -1.3333 166.12 430.73)" d="M0 0h-3.689l-4.32 11.04V0h-3.69v20.699h3.69l4.32-11.519v11.519H0z" clip-path="url(#b)"/><path transform="matrix(1.3333 0 0 -1.3333 0 474.91)" d="M132.19 33.14h-3.66v20.699h3.66z" clip-path="url(#c)"/><path transform="matrix(1.3333 0 0 -1.3333 197.07 430.73)" d="M0 0h-3.69l-4.32 11.04V0h-3.69v20.699h3.69L-3.69 9.18v11.519H0z" clip-path="url(#d)"/><path transform="matrix(1.3333 0 0 -1.3333 202.08 423.13)" d="M0 0v9.329c0 1.96.55 3.445 1.65 4.455S4.2 15.299 6 15.299c1.72 0 3.11-.49 4.17-1.47 1.059-.98 1.59-2.43 1.59-4.35V8.85H8.07v.629c0 .8-.2 1.416-.6 1.845-.4.43-.92.645-1.56.645-.78 0-1.345-.27-1.695-.81S3.69 9.81 3.69 8.729V.42c0-2.021.74-3.03 2.22-3.03.72 0 1.26.245 1.62.735.36.489.54 1.194.54 2.114V2.43H5.88v2.91h5.88V0c0-1.92-.555-3.391-1.665-4.41C8.985-5.431 7.55-5.94 5.79-5.94c-1.78 0-3.189.504-4.229 1.515C.521-3.415 0-1.94 0 0" clip-path="url(#e)"/><path transform="matrix(1.3333 0 0 -1.3333 230.73 409.77)" d="m0 0-1.74-8.4h3.479zm-2.431-11.7-.84-4.02H-7.11L-1.8 4.979h3.6L7.079-15.72h-3.84l-.84 4.02z" clip-path="url(#f)"/><path transform="matrix(1.3333 0 0 -1.3333 251.93 415.25)" d="M0 0c.739 0 1.25.245 1.529.735.281.491.42 1.215.42 2.175s-.135 1.68-.404 2.16c-.271.48-.785.72-1.545.72h-1.92V0zm-1.92-3.3v-8.309h-3.69V9.09H.029c2.04 0 3.486-.49 4.335-1.47.851-.98 1.276-2.55 1.276-4.71 0-1.38-.191-2.53-.571-3.45s-1-1.609-1.86-2.069l3.091-9H2.46L-.15-3.3z" clip-path="url(#g)"/></g><path transform="matrix(1.3333 0 0 -1.3333 60.306 263.88)" d="M0 0h185.939v4.767H-5.073C-4.894 2.108-2.704 0 0 0" clip-path="url(#h)" fill="#fff"/><path transform="matrix(1.3333 0 0 -1.3333 53.497 242.68)" d="M0 0v1.212-12.008 1.16h191.05v4.069H0v1.5h191.05V0z" clip-path="url(#i)" fill="#fff"/><path transform="matrix(1.3333 0 0 -1.3333 77.181 209.07)" d="M0 0h155.52a.75.75 0 0 0 0-1.5H0A.75.75 0 0 0 0 0m5.234 16.007h145.05a.75.75 0 0 0 0-1.5H5.234a.75.75 0 0 0 0 1.5m4.108 17.135 9.894 32.817a.951.951 0 0 0 .91.676h52.093a.95.95 0 0 0 .951-.95V32.867a.95.95 0 0 0-.951-.95H10.252a.95.95 0 0 0-.91 1.225m70.322-.128h66.884a.75.75 0 0 0 0-1.5H79.664a.75.75 0 0 0 0 1.5m0 15.66h64.339a.75.75 0 0 0 0-1.5H79.664a.75.75 0 0 0 0 1.5m0 16.355h61.69a.75.75 0 0 0 0-1.5h-61.69a.75.75 0 0 0 0 1.5M172.69-21.44 144.688 83.42H10.708L-17.107-21.53a5.052 5.052 0 0 1-.631-2.176h191.02a4.771 4.771 0 0 1-.593 2.268" clip-path="url(#j)" fill="#fff"/><path transform="matrix(1.3333 0 0 -1.3333 183.4 124.36)" d="M0 0h61.689a.75.75 0 1 1 0 1.5H0A.75.75 0 0 1 0 0" clip-path="url(#k)" fill="#007ebf"/><path transform="matrix(1.3333 0 0 -1.3333 183.4 146.17)" d="M0 0h64.339a.75.75 0 0 1 0 1.5H0A.75.75 0 0 1 0 0" clip-path="url(#l)" fill="#007ebf"/><path transform="matrix(1.3333 0 0 -1.3333 183.4 167.05)" d="M0 0h66.884a.75.75 0 0 1 0 1.5H0A.75.75 0 0 1 0 0" clip-path="url(#m)" fill="#007ebf"/><path transform="matrix(1.3333 0 0 -1.3333 84.16 189.72)" d="M0 0h145.05a.75.75 0 0 1 0 1.5H0A.75.75 0 0 1 0 0" clip-path="url(#n)" fill="#007ebf"/><path transform="matrix(1.3333 0 0 -1.3333 77.181 211.07)" d="M0 0h155.52a.75.75 0 0 1 0 1.5H0A.75.75 0 0 1 0 0" clip-path="url(#o)" fill="#007ebf"/><path transform="matrix(1.3333 0 0 -1.3333 0 474.91)" d="M40.123 168.61h191.05v1.5H40.123z" clip-path="url(#p)" fill="#007ebf"/><path transform="matrix(1.3333 0 0 -1.3333 308.23 242.68)" d="M0 0v1.5h-191.05V0z" clip-path="url(#q)" fill="#007ebf"/><path transform="matrix(1.3333 0 0 -1.3333 53.497 257.07)" d="M0 0v-.34h191.05v1.5H0z" clip-path="url(#r)" fill="#007ebf"/><path transform="matrix(1.3333 0 0 -1.3333 90.851 166.51)" d="M0 0h61.987c.525 0 .951.426.951.951v32.817a.951.951 0 0 1-.951.951H9.894a.95.95 0 0 1-.91-.677L-.911 1.225A.95.95 0 0 1 0 0" clip-path="url(#s)" fill="#007ebf"/></svg>