<svg viewBox="0 0 361.72 474.61" xmlns="http://www.w3.org/2000/svg"><defs><clipPath id="a"><path transform="translate(-82.157 -57.124)" d="M0 355.955h271.291V0H0Z"/></clipPath><clipPath id="b"><path d="M0 355.955h271.291V0H0Z"/></clipPath><clipPath id="c"><path transform="translate(-116.01 -49.624)" d="M0 355.955h271.291V0H0Z"/></clipPath><clipPath id="d"><path transform="translate(-123.88 -51.215)" d="M0 355.955h271.291V0H0Z"/></clipPath><clipPath id="e"><path transform="translate(-144.01 -68.404)" d="M0 355.955h271.291V0H0Z"/></clipPath><clipPath id="f"><path transform="translate(-161.27 -57.124)" d="M0 355.955h271.291V0H0Z"/></clipPath><clipPath id="g"><path transform="translate(-178.24 -49.624)" d="M0 355.955h271.291V0H0Z"/></clipPath><clipPath id="h"><path transform="translate(-185.83 -51.425)" d="M0 355.955h271.291V0H0Z"/></clipPath><clipPath id="i"><path d="M0 355.955h271.291V0H0Z"/></clipPath><clipPath id="j"><path transform="translate(-102.72 -31.235)" d="M0 355.955h271.291V0H0Z"/></clipPath><clipPath id="k"><path transform="translate(-114.21 -36.214)" d="M0 355.955h271.291V0H0Z"/></clipPath><clipPath id="l"><path transform="translate(-130.18 -27.605)" d="M0 355.955h271.291V0H0Z"/></clipPath><clipPath id="m"><path transform="translate(-144.25 -31.235)" d="M0 355.955h271.291V0H0Z"/></clipPath><clipPath id="n"><path transform="translate(-158.23 -36.214)" d="M0 355.955h271.291V0H0Z"/></clipPath><clipPath id="o"><path transform="translate(-170.83 -36.214)" d="M0 355.955h271.291V0H0Z"/></clipPath><clipPath id="p"><path transform="translate(-89.528 -215.04)" d="M0 355.955h271.291V0H0Z"/></clipPath><clipPath id="q"><path transform="translate(-168.56 -277.69)" d="M0 355.955h271.291V0H0Z"/></clipPath><clipPath id="r"><path transform="translate(-133.94 -215.95)" d="M0 355.955h271.291V0H0Z"/></clipPath><clipPath id="s"><path transform="translate(-133.94 -250.07)" d="M0 355.955h271.291V0H0Z"/></clipPath><clipPath id="t"><path transform="translate(-133.94 -322.83)" d="M0 355.955h271.291V0H0Z"/></clipPath><clipPath id="u"><path transform="translate(-137.35 -181.81)" d="M0 355.955h271.291V0H0Z"/></clipPath><clipPath id="v"><path transform="translate(-137.35 -186.07)" d="M0 355.955h271.291V0H0Z"/></clipPath><clipPath id="w"><path transform="translate(-137.35 -220.22)" d="M0 355.955h271.291V0H0Z"/></clipPath><clipPath id="x"><path d="M0 355.955h271.291V0H0Z"/></clipPath></defs><path d="M1.333 473.278h359.045V359.896H1.333z" fill="#fff"/><path d="M0 0v474.6h361.711V0zm2.667 361.71h356.377v110.215H2.667z" fill="#06682d"/><g fill="#161412"><path d="M93.079 390.76v23.158h-4.88V390.76h-4.8v-4.44h14.439v4.44z"/><path transform="matrix(1.3333 0 0 -1.3333 109.54 398.44)" d="M0 0c.739 0 1.25.245 1.529.735.281.491.42 1.215.42 2.175s-.135 1.68-.404 2.16c-.271.48-.785.72-1.545.72h-1.92V0zm-1.92-3.3v-8.309h-3.69V9.09H.029c2.04 0 3.486-.49 4.335-1.47.851-.98 1.276-2.55 1.276-4.71 0-1.38-.191-2.53-.571-3.45s-1-1.609-1.859-2.069l3.09-9H2.46L-.15-3.3z" clip-path="url(#a)"/><path transform="matrix(1.3333 0 0 -1.3333 0 474.61)" d="M102.19 68.104H99.4v3.42h2.79zm-3.719-6.869-1.741-8.401h3.48zm-.96 6.869h-2.79v3.42h2.79zM96.04 49.535l-.84-4.02h-3.84l5.311 20.699h3.599l5.28-20.699h-3.84l-.84 4.02z" clip-path="url(#b)"/><path transform="matrix(1.3333 0 0 -1.3333 154.68 408.44)" d="M0 0c.37.54.555 1.29.555 2.25v7.771c0 1.059-.18 1.864-.54 2.414-.361.55-.9.825-1.62.825h-1.98V-.81h1.98C-.905-.81-.37-.539 0 0m-1.516 16.59c1.741 0 3.136-.5 4.186-1.5s1.574-2.48 1.574-4.44V1.83c0-1.939-.55-3.415-1.649-4.425-1.1-1.009-2.531-1.514-4.29-1.514h-5.55V16.59z" clip-path="url(#c)"/><path transform="matrix(1.3333 0 0 -1.3333 165.17 406.32)" d="M0 0v9.329c0 1.96.55 3.445 1.65 4.455S4.2 15.299 6 15.299c1.72 0 3.11-.49 4.17-1.47 1.059-.98 1.59-2.43 1.59-4.35V8.85H8.07v.629c0 .8-.2 1.416-.6 1.845-.4.43-.92.645-1.56.645-.78 0-1.345-.27-1.695-.81S3.69 9.81 3.69 8.729V.42c0-2.021.74-3.03 2.22-3.03.72 0 1.26.245 1.62.735.36.489.54 1.194.54 2.114V2.43H5.88v2.91h5.88V0c0-1.92-.555-3.391-1.665-4.41C8.985-5.431 7.55-5.94 5.79-5.94c-1.78 0-3.189.504-4.229 1.515C.521-3.415 0-1.94 0 0" clip-path="url(#d)"/><path transform="matrix(1.3333 0 0 -1.3333 192.02 383.4)" d="M0 0c0-.38.13-.699.391-.96.259-.26.58-.39.96-.39.379 0 .694.13.944.39.25.261.375.58.375.96 0 .4-.125.73-.375.99s-.565.39-.944.39C.95 1.38.625 1.25.375.99S0 .4 0 0m1.351-7.169-1.741-8.4h3.48zm-2.431-11.7-.84-4.02h-3.841l5.312 20.7c-.321.259-.571.58-.75.96C-1.38-.85-1.47-.439-1.47 0c0 .82.271 1.5.811 2.04.539.54 1.209.811 2.01.811.799 0 1.469-.271 2.009-.811S4.17.82 4.17 0c0-.439-.09-.85-.27-1.229-.18-.38-.43-.701-.75-.96l5.28-20.7H4.59l-.84 4.02z" clip-path="url(#e)"/><path transform="matrix(1.3333 0 0 -1.3333 215.02 398.44)" d="M0 0c.739 0 1.25.245 1.529.735.281.491.42 1.215.42 2.175s-.135 1.68-.404 2.16c-.271.48-.785.72-1.545.72h-1.92V0zm-1.92-3.3v-8.309h-3.69V9.09H.029c2.04 0 3.486-.49 4.335-1.47.851-.98 1.276-2.55 1.276-4.71 0-1.38-.191-2.53-.571-3.45s-1-1.609-1.86-2.069l3.091-9H2.46L-.15-3.3z" clip-path="url(#f)"/><path transform="matrix(1.3333 0 0 -1.3333 237.66 408.44)" d="M0 0c.37.54.555 1.29.555 2.25v7.771c0 1.059-.18 1.864-.54 2.414-.361.55-.9.825-1.62.825h-1.98V-.81h1.98C-.905-.81-.37-.539 0 0m-1.516 16.59c1.741 0 3.136-.5 4.186-1.5s1.574-2.48 1.574-4.44V1.83c0-1.939-.55-3.415-1.649-4.425-1.1-1.009-2.531-1.514-4.29-1.514h-5.55V16.59z" clip-path="url(#g)"/><path transform="matrix(1.3333 0 0 -1.3333 247.78 406.04)" d="M0 0h3.479c.041-1.021.246-1.771.616-2.25.37-.48.915-.721 1.634-.721.72 0 1.246.221 1.576.66.33.441.495 1.141.495 2.101 0 .8-.186 1.435-.556 1.904-.37.47-.995.906-1.875 1.305L3.96 3.63c-1.341.599-2.306 1.34-2.896 2.22C.475 6.729.18 7.909.18 9.39c0 1.739.505 3.13 1.514 4.169 1.01 1.04 2.375 1.56 4.095 1.56 1.7 0 3.016-.515 3.945-1.545.93-1.03 1.425-2.514 1.485-4.455h-3.39c-.019.941-.184 1.646-.495 2.115-.31.47-.824.705-1.545.705-1.34 0-2.01-.79-2.01-2.37 0-.719.165-1.295.495-1.724.33-.431.885-.816 1.665-1.156l1.35-.6c1.44-.64 2.485-1.44 3.135-2.4s.975-2.24.975-3.839c0-1.92-.5-3.4-1.5-4.44S7.479-6.15 5.64-6.15c-1.821 0-3.21.53-4.17 1.589C.51-3.5.02-1.98 0 0" clip-path="url(#h)"/><path transform="matrix(1.3333 0 0 -1.3333 0 474.61)" d="M208.74 54.245h-8.25v3.3h8.25z" clip-path="url(#i)"/><path transform="matrix(1.3333 0 0 -1.3333 136.95 432.96)" d="m0 0-1.74-8.4h3.479zm-2.431-11.7-.84-4.02H-7.11L-1.8 4.979h3.6L7.079-15.72h-3.84l-.84 4.02z" clip-path="url(#j)"/><path transform="matrix(1.3333 0 0 -1.3333 152.29 426.32)" d="m0 0 2.49-15.479L5.01 0h4.05L4.41-20.699H.601L-4.05 0Z" clip-path="url(#k)"/><path transform="matrix(1.3333 0 0 -1.3333 173.57 437.8)" d="M0 0h4.8v-3.33H0v-8.76h-3.69V8.609h9.24v-3.33H0z" clip-path="url(#l)"/><path transform="matrix(1.3333 0 0 -1.3333 192.33 432.96)" d="m0 0-1.74-8.4h3.479zm-2.431-11.7-.84-4.02h-3.84L-1.8 4.979h3.6L7.079-15.72h-3.84l-.84 4.02z" clip-path="url(#m)"/><path transform="matrix(1.3333 0 0 -1.3333 210.97 426.32)" d="M0 0v-17.399h5.55v-3.3h-9.24V0z" clip-path="url(#n)"/><path transform="matrix(1.3333 0 0 -1.3333 227.77 426.32)" d="M0 0v-17.399h5.55v-3.3h-9.24V0z" clip-path="url(#o)"/></g><g fill="#fff"><path transform="matrix(1.3333 0 0 -1.3333 119.37 187.88)" d="M0 0c1.366-9.572 5.391-28.152 19.585-43.97 9.883-11.012 23.457-18.404 24.823-19.133v29.868z" clip-path="url(#p)"/><path transform="matrix(1.3333 0 0 -1.3333 224.74 104.35)" d="M0 0c-4.511 6.575-10.692 13.043-15.283 18.728-4.209 5.21-9.833 10.509-12.746 17.772l-3.174 8.658v-68.511z" clip-path="url(#q)"/><path transform="matrix(1.3333 0 0 -1.3333 178.58 186.68)" d="m0 0-43.399 32.48-.018-.082c-1.713-8.411-2.265-21.778-1.565-28.607L0-29.874z" clip-path="url(#r)"/><path transform="matrix(1.3333 0 0 -1.3333 178.58 141.18)" d="m0 0-33.054 24.738-.014-.024c-4.405-7.347-7.695-16.103-9.468-22.737L0-29.856z" clip-path="url(#s)"/><path transform="matrix(1.3333 0 0 -1.3333 178.58 44.16)" d="m0 0-3.173-8.651c-2.912-7.263-8.537-12.562-12.745-17.773-4.59-5.682-10.769-12.148-15.28-18.721L0-68.493z" clip-path="url(#t)"/><path transform="matrix(1.3333 0 0 -1.3333 183.14 232.2)" d="M0 0v-29.857c1.358.725 14.938 8.117 24.824 19.133C39.013 5.088 43.041 23.66 44.408 33.235z" clip-path="url(#u)"/><path transform="matrix(1.3333 0 0 -1.3333 183.14 226.51)" d="m0 0 44.982 33.666c.702 6.826.15 20.203-1.564 28.618l-.016.073L0 29.875z" clip-path="url(#v)"/><path transform="matrix(1.3333 0 0 -1.3333 183.14 180.98)" d="m0 0 42.539 31.836c-1.772 6.636-5.063 15.396-9.47 22.746l-.009.016L0 29.856z" clip-path="url(#w)"/><path transform="matrix(1.3333 0 0 -1.3333 0 474.61)" d="M137.36 117.77h-3.417v34.173h3.417z" clip-path="url(#x)"/></g></svg>